<svg width="172" height="50" viewBox="0 0 172 50" fill="none" xmlns="http://www.w3.org/2000/svg">
<path d="M30.6163 9.42574C31.2866 11.3895 31.3481 13.3312 30.801 15.2508C30.243 17.1388 29.2026 18.9085 27.6797 20.5599C29.1644 20.9726 30.4606 21.6618 31.5683 22.6276C32.6968 23.5509 33.5043 24.7252 33.9908 26.1505C34.5746 27.8609 34.6304 29.7339 34.1581 31.7694C33.7067 33.7624 32.8474 35.7001 31.5803 37.5826C30.3023 39.4333 28.7057 41.1276 26.7905 42.6654C24.8752 44.2032 22.7773 45.3613 20.4968 46.1397C18.0262 46.983 15.6944 47.2484 13.5013 46.9361C11.3506 46.6446 9.46081 45.822 7.83177 44.4683C7.82418 43.41 7.83594 42.0975 7.86704 40.5309C7.919 38.9218 7.99685 37.2331 8.10059 35.4648C8.19352 33.6649 8.29186 31.8808 8.3956 30.1125C8.53102 28.3335 8.67298 26.729 8.82148 25.2991C9.10616 22.196 9.4209 19.5954 9.76571 17.4973C10.1105 15.3992 10.5005 13.6924 10.9355 12.3769C9.37726 13.51 8.00437 14.6682 6.81687 15.8515C5.61857 17.0031 4.79495 18.0092 4.34601 18.8697C3.99608 18.777 3.59787 18.5946 3.1514 18.3227C2.7366 18.0399 2.31099 17.7254 1.87457 17.3793C1.45901 16.9906 1.07513 16.5912 0.722914 16.181C0.402378 15.7599 0.161406 15.3647 0 14.9955C0.628929 14.1442 1.50622 13.2436 2.63189 12.2936C3.77841 11.301 5.06283 10.3499 6.48513 9.44004C7.90743 8.5302 9.38843 7.68875 10.9281 6.91567C12.4995 6.13177 14.0295 5.48577 15.5182 4.97765C19.3191 3.68032 22.556 3.42426 25.2287 4.20947C27.9015 4.99468 29.6974 6.73343 30.6163 9.42574ZM16.3903 26.9594C15.6912 26.8798 14.9909 26.6414 14.2895 26.2442C14.1124 28.1082 13.9561 29.9298 13.8207 31.7089C13.717 33.4771 13.6387 35.1129 13.586 36.6162C13.5333 38.1195 13.5161 39.4161 13.5345 40.5061C13.5529 41.5961 13.622 42.3683 13.7417 42.8225C14.2716 42.9245 14.8591 42.9362 15.5041 42.8575C16.1808 42.768 16.9785 42.5664 17.897 42.2529C20.0509 41.5178 22.007 40.5141 23.7654 39.2421C25.5238 37.97 26.9743 36.5731 28.1171 35.0514C29.249 33.498 30.0313 31.9048 30.4642 30.2718C30.897 28.6388 30.8647 27.0938 30.3674 25.6367C29.6539 23.5463 28.2376 22.3498 26.1187 22.0475C23.9941 23.9044 21.3797 25.3625 18.2757 26.422C17.8322 26.5734 17.4838 26.6923 17.2304 26.7788C17.0087 26.8544 16.7286 26.9147 16.3903 26.9594ZM19.9803 7.32702C19.3152 7.55405 18.6187 7.84481 17.891 8.1993C17.1841 8.5113 16.4459 8.88703 15.6764 9.32649C15.8464 9.40994 15.99 9.52004 16.1074 9.65679C16.2457 9.75106 16.3735 9.86656 16.4909 10.0033C16.3356 10.4807 16.1764 11.1539 16.0133 12.023C15.8502 12.892 15.6828 13.904 15.5111 15.0589C15.3287 16.1821 15.1524 17.4269 14.9823 18.7935C14.8438 20.1492 14.7003 21.542 14.5518 22.9719C15.0471 22.6614 15.6639 22.3448 16.4025 22.022C17.1619 21.6567 17.9217 21.3443 18.6819 21.0848C19.0937 20.9443 19.495 20.825 19.8859 20.7269C20.3085 20.618 20.7206 20.5304 21.1223 20.464C22.5562 19.6917 23.7939 18.8626 24.8353 17.9766C25.8976 17.0482 26.7641 16.1159 27.4348 15.1797C28.0946 14.2119 28.5269 13.2509 28.7318 12.2969C28.9366 11.3429 28.8877 10.4224 28.585 9.53556C28.066 8.0152 27.075 7.08034 25.612 6.73098C24.1381 6.34995 22.2608 6.54863 19.9803 7.32702Z" fill="white"/>
<path d="M50.452 14.6955C50.7811 14.635 51.1718 14.6313 51.6239 14.6843C52.1029 14.6983 52.5416 14.7708 52.94 14.9018C53.3323 14.9998 53.6618 15.1264 53.9286 15.2816C54.2282 15.4307 54.3931 15.5875 54.4234 15.7521C54.0192 17.2556 53.6673 18.7665 53.3679 20.2848C53.0624 21.7701 52.8302 23.191 52.6711 24.5474C52.5121 25.9037 52.4202 27.1627 52.3955 28.3242C52.4037 29.4797 52.4834 30.4689 52.6347 31.2918C52.8041 32.2135 53.045 32.9689 53.3574 33.558C53.6639 34.1142 54.0717 34.4816 54.5809 34.6603C54.2343 34.9962 53.7634 35.3039 53.1683 35.5835C52.5731 35.863 52.0286 36.0482 51.5349 36.1389C49.7574 36.4656 48.6447 35.411 48.197 32.9752C47.8522 31.0989 48.0057 28.4164 48.6575 24.9278C48.2775 26.5629 47.7836 28.134 47.1758 29.6409C46.562 31.1149 45.9045 32.4438 45.2033 33.6275C44.5021 34.8113 43.7511 35.8171 42.9505 36.6448C42.1767 37.4336 41.4233 37.9634 40.6904 38.2342C39.4604 38.3922 38.367 37.9977 37.4103 37.0506C36.4475 36.0706 35.8088 34.7247 35.4942 33.013C35.1553 31.1697 35.1934 29.155 35.6083 26.9689C36.0232 24.7829 36.6793 22.7056 37.5765 20.7372C38.5067 18.7627 39.5901 17.0663 40.8267 15.648C42.0572 14.1967 43.3412 13.3142 44.6787 13.0003C45.0261 13.0385 45.4244 13.1695 45.8739 13.3931C46.3563 13.6107 46.8148 13.8838 47.2495 14.2122C47.7171 14.5346 48.1219 14.8856 48.4639 15.2651C48.7998 15.6117 49.0115 15.9301 49.0988 16.2203C47.8185 16.6598 46.5704 17.5528 45.3546 18.8992C44.1718 20.2396 43.1465 21.7892 42.2787 23.548C41.4379 25.2679 40.8157 27.0667 40.4122 28.9444C40.0086 30.8221 39.946 32.518 40.2244 34.0322C40.3393 34.6576 40.6423 35.0103 41.1334 35.0902C42.0517 34.7172 43.0062 33.7081 43.9969 32.0627C44.9815 30.3845 46.0873 27.8843 47.3143 24.5621C47.5345 23.9091 47.7756 23.1842 48.0375 22.3875C48.3323 21.5846 48.6211 20.7489 48.9038 19.8802C49.1865 19.0116 49.4528 18.146 49.7026 17.2833C49.9792 16.3818 50.229 15.5192 50.452 14.6955Z" fill="white"/>
<path d="M57.6764 33.6343C57.7783 32.6547 57.9769 31.3667 58.2722 29.7703C58.5986 28.1383 58.9862 26.4183 59.435 24.6103C59.8815 22.769 60.3615 20.9254 60.8748 19.0795C61.3881 17.2337 61.8971 15.5726 62.4017 14.0963C62.7662 13.032 63.0964 12.2047 63.3922 11.6146C63.6858 10.9911 64.0194 10.4655 64.3932 10.0379C64.8652 10.0733 65.3573 10.1576 65.8694 10.2909C66.3815 10.4242 66.8792 10.5921 67.3624 10.7944C67.8456 10.9967 68.2798 11.2191 68.6651 11.4616C69.0481 11.6707 69.3477 11.8854 69.5637 12.1057C68.7339 13.2348 68.0144 14.5075 67.4051 15.9237C66.8292 17.3377 66.2624 19.1368 65.7048 21.3211C67.4003 19.5971 68.8833 17.9545 70.1537 16.3932C71.4575 14.8297 72.6499 13.1059 73.7309 11.2219C73.92 11.0415 74.265 10.9344 74.7659 10.9008C75.2334 10.8694 75.6898 10.9226 76.1352 11.0604C76.5782 11.1648 76.8922 11.345 77.0772 11.6009C76.5838 13.2441 76.3898 14.8505 76.4952 16.42C76.5939 17.8893 76.885 18.9766 77.3685 19.6821C77.3486 19.8847 77.1406 20.2845 76.7447 20.8813C76.3821 21.4759 75.9672 22.0405 75.4999 22.575C74.5669 22.1681 73.7228 21.5875 72.9677 20.8332C72.2104 20.0454 71.6322 19.1786 71.2332 18.2326C69.7378 19.4401 68.475 20.6151 67.4448 21.7577C66.4124 22.8669 65.5392 24.0996 64.8253 25.4558C64.1425 26.7763 63.5733 28.2905 63.1178 29.9983C62.6957 31.7038 62.3116 33.7255 61.9655 36.0632C61.6627 36.05 61.2876 35.9578 60.84 35.7866C60.428 35.6466 59.9961 35.4576 59.544 35.2196C59.1253 34.9794 58.7389 34.7202 58.3848 34.4421C58.0307 34.164 57.7946 33.8948 57.6764 33.6343Z" fill="white"/>
<path d="M77.4289 32.8624C77.636 31.8996 77.9726 30.6405 78.4385 29.0854C78.9392 27.4981 79.5103 25.83 80.1517 24.0811C80.7945 22.2987 81.4707 20.5177 82.1803 18.7381C82.89 16.9585 83.5753 15.3621 84.2364 13.9489C84.7138 12.9302 85.1314 12.1434 85.4891 11.5887C85.8483 11.0005 86.2368 10.5141 86.6546 10.1293C87.12 10.2154 87.6 10.3524 88.0948 10.5402C88.5895 10.7281 89.0661 10.9487 89.5247 11.202C89.9832 11.4553 90.3909 11.7233 90.7477 12.006C91.1059 12.2552 91.3805 12.501 91.5715 12.7433C90.6246 13.7763 89.7719 14.9638 89.0132 16.306C88.288 17.6495 87.5303 19.3769 86.74 21.4882C88.6118 19.9573 90.2635 18.4844 91.695 17.0695C93.16 15.6559 94.5316 14.071 95.8097 12.3147C96.0173 12.1558 96.3718 12.0866 96.8734 12.1073C97.3416 12.1265 97.7896 12.2287 98.2174 12.4138C98.6466 12.5654 98.9394 12.7784 99.0956 13.0528C98.4276 14.6332 98.0613 16.2092 97.9966 17.7809C97.9361 19.2523 98.1081 20.3647 98.5125 21.1183C98.4708 21.3176 98.2209 21.6925 97.7628 22.2431C97.3382 22.7951 96.8647 23.3115 96.3425 23.7925C95.4588 23.2872 94.6824 22.6188 94.0132 21.7874C93.3453 20.9225 92.8642 19.9983 92.5697 19.0148C90.9526 20.0536 89.5703 21.0854 88.4227 22.1101C87.2766 23.1013 86.2754 24.2325 85.4192 25.5037C84.5978 26.7427 83.8684 28.1866 83.2312 29.8352C82.6273 31.4852 82.0272 33.4536 81.4306 35.7403C81.1311 35.6945 80.768 35.5623 80.3416 35.3438C79.9472 35.1601 79.5381 34.9255 79.1144 34.6401C78.7241 34.3561 78.368 34.0567 78.0459 33.742C77.7239 33.4273 77.5183 33.1341 77.4289 32.8624Z" fill="white"/>
<path d="M98.9031 32.1363C98.9428 31.8377 99.0078 31.475 99.0983 31.0481C99.2263 30.5924 99.4051 30.0084 99.6348 29.2962C99.8688 28.5507 100.156 27.6604 100.496 26.6251C100.869 25.5943 101.321 24.3544 101.851 22.9055C101.961 22.5825 102.181 22.0715 102.51 21.3724C102.839 20.6734 103.239 19.95 103.71 19.2022C104.218 18.4256 104.788 17.691 105.42 16.9984C106.086 16.3102 106.824 15.8343 107.636 15.5707C108.182 15.7783 108.882 16.2257 109.736 16.9131C110.595 17.5673 111.292 18.4195 111.828 19.4697C110.95 20.231 110.189 21.0077 109.543 21.7999C108.931 22.5964 108.348 23.4305 107.793 24.3022C107.272 25.1783 106.762 26.0898 106.265 27.0366C105.801 27.9879 105.281 28.9823 104.704 30.0199C104.216 30.9004 103.756 31.8185 103.326 32.7742C102.899 33.6967 102.621 34.5206 102.491 35.2461C102.412 35.8433 102.34 36.2558 102.276 36.4837C102.241 36.7491 102.14 36.8708 101.974 36.8488C101.842 36.8311 101.587 36.713 101.211 36.4942C100.835 36.2755 100.453 35.9716 100.066 35.5825C99.7165 35.1647 99.411 34.6684 99.1497 34.0935C98.8884 33.5186 98.8062 32.8662 98.9031 32.1363ZM111.276 11.8C111.303 11.601 111.392 11.309 111.544 10.9241C111.4 10.7362 111.284 10.4675 111.196 10.1181C111.14 9.77312 111.13 9.46792 111.165 9.2025C111.205 8.90391 111.291 8.51019 111.423 8.02134C111.593 7.50372 111.784 6.95513 111.996 6.37556C112.208 5.79599 112.456 5.20424 112.738 4.6003C113.026 3.96319 113.304 3.39243 113.574 2.88802C113.972 2.94089 114.437 3.12088 114.97 3.428C115.541 3.70636 116.101 4.06766 116.65 4.5119C117.203 4.92296 117.7 5.37718 118.14 5.87456C118.585 6.33876 118.916 6.77096 119.133 7.17114C118.719 7.48764 118.17 7.93801 117.485 8.52226C116.804 9.07334 116.133 9.67638 115.472 10.3314C114.815 10.9532 114.213 11.5485 113.665 12.1172C113.117 12.6859 112.759 13.0941 112.591 13.3419C112.201 13.2227 111.875 13.0106 111.612 12.7055C111.353 12.3673 111.241 12.0654 111.276 11.8Z" fill="white"/>
<path d="M112.197 34.5403C112.497 33.0987 113.261 31.1554 114.489 28.7106C115.724 26.233 117.326 23.3875 119.295 20.1742C122.481 15.0607 125.341 10.8537 127.875 7.55307C130.449 4.22654 132.803 1.70885 134.938 0C135.317 0.14751 135.758 0.410391 136.26 0.788643C136.795 1.17373 137.307 1.58816 137.796 2.03194C138.291 2.44295 138.718 2.85669 139.076 3.27314C139.466 3.69642 139.706 4.02002 139.796 4.24393C136.612 6.72529 133.692 9.5009 131.034 12.5708C128.377 15.6406 125.778 19.2525 123.236 23.4063C121.054 26.9855 119.278 30.2562 117.908 33.2184C116.545 36.1479 115.649 38.6447 115.218 40.7088C115.102 41.2658 115.03 41.6098 115.003 41.7409C114.976 41.8719 114.965 42.0064 114.97 42.1443C114.525 41.9831 114.156 41.7864 113.862 41.5543C113.569 41.3222 113.397 41.0812 113.346 40.8313C113.315 40.6539 113.186 40.3705 112.96 39.9814C112.726 39.6251 112.512 39.3411 112.317 39.1294C112.063 38.8714 111.923 38.3123 111.897 37.4522C111.878 36.5593 111.978 35.5887 112.197 34.5403Z" fill="white"/>
<path d="M129.365 32.4568C129.62 31.5898 130.212 30.4034 131.143 28.8977C132.115 27.3693 133.263 25.7181 134.586 23.9441C135.919 22.1379 137.362 20.3118 138.916 18.4659C140.479 16.5879 141.999 14.8544 143.478 13.2653C144.988 11.6857 146.375 10.3489 147.638 9.25482C148.91 8.12861 149.934 7.43503 150.708 7.17407C151.193 7.4213 151.669 7.82246 152.133 8.37755C152.64 8.90997 153.079 9.49246 153.452 10.125C153.833 10.7255 154.141 11.3392 154.376 11.9662C154.61 12.5931 154.703 13.1087 154.654 13.5129C152.62 14.3807 150.504 15.5903 148.304 17.1419C146.114 18.6613 143.97 20.4385 141.872 22.4735C139.807 24.518 137.85 26.7862 136.002 29.2782C134.163 31.7381 132.563 34.3376 131.2 37.0768C130.843 36.8673 130.491 36.6418 130.143 36.4001C129.837 36.1359 129.593 35.8375 129.412 35.5052C129.23 35.1728 129.125 34.7583 129.097 34.2616C129.068 33.7649 129.158 33.1633 129.365 32.4568ZM124.557 44.9102C124.172 44.797 123.831 44.5923 123.534 44.2958C123.228 44.0315 122.968 43.7285 122.754 43.3867C122.564 43.0865 122.43 42.7683 122.355 42.4322C122.27 42.1281 122.251 41.8958 122.298 41.7352C122.411 41.3499 122.605 40.8663 122.881 40.2845C123.156 39.7026 123.47 39.167 123.823 38.6777C124.186 38.1563 124.568 37.7453 124.97 37.4448C125.382 37.1123 125.764 36.9978 126.118 37.1016C127.017 37.3656 127.822 37.9508 128.532 38.8571C129.284 39.7407 129.772 40.6339 129.995 41.5366C129.487 41.8409 129.013 42.2075 128.573 42.6364C128.124 43.0975 127.689 43.5103 127.268 43.875C126.837 44.2718 126.398 44.5789 125.951 44.7963C125.503 45.0137 125.039 45.0517 124.557 44.9102Z" fill="#FB3B00"/>
<path d="M144.996 37.8701C145.325 37.0283 146.018 35.8976 147.075 34.478C148.175 33.0394 149.461 31.4936 150.933 29.8406C152.417 28.1564 154.013 26.4619 155.72 24.7572C157.44 23.0214 159.104 21.4258 160.715 19.9705C162.356 18.5274 163.853 17.3154 165.206 16.3346C166.571 15.3227 167.651 14.7201 168.444 14.5271C168.907 14.8154 169.345 15.2561 169.761 15.8493C170.219 16.4235 170.606 17.0418 170.923 17.7042C171.251 18.3354 171.505 18.9735 171.684 19.6184C171.864 20.2632 171.912 20.7849 171.828 21.1834C169.727 21.8721 167.513 22.8942 165.188 24.2498C162.874 25.5741 160.585 27.1594 158.319 29.0054C156.085 30.8637 153.939 32.9542 151.883 35.2771C149.838 37.5688 148.019 40.0203 146.425 42.6315C146.087 42.3919 145.755 42.1367 145.43 41.8659C145.148 41.5762 144.931 41.2579 144.779 40.9111C144.627 40.5643 144.558 40.1423 144.573 39.6449C144.587 39.1476 144.728 38.556 144.996 37.8701ZM139.129 49.8612C138.755 49.7151 138.433 49.4816 138.163 49.1607C137.881 48.8709 137.648 48.5466 137.465 48.1876C137.301 47.872 137.196 47.5435 137.149 47.202C137.091 46.8918 137.092 46.6587 137.153 46.5028C137.299 46.1287 137.534 45.6637 137.859 45.1078C138.184 44.552 138.543 44.0456 138.937 43.5886C139.343 43.1005 139.76 42.7241 140.186 42.4595C140.625 42.1638 141.016 42.0828 141.359 42.2167C142.232 42.5575 142.983 43.2101 143.613 44.1744C144.285 45.1197 144.694 46.0517 144.838 46.9704C144.306 47.2296 143.802 47.5539 143.327 47.9431C142.839 48.3636 142.37 48.7373 141.919 49.0642C141.456 49.4223 140.992 49.6903 140.527 49.8682C140.063 50.0461 139.597 50.0438 139.129 49.8612Z" fill="#FB3B00"/>
</svg>