<svg width="140" height="41" viewBox="0 0 140 41" fill="none" xmlns="http://www.w3.org/2000/svg">
<path d="M24.8017 7.6356C25.3446 9.22643 25.3945 10.7994 24.9512 12.3544C24.4992 13.8838 23.6564 15.3174 22.4228 16.6551C23.6255 16.9895 24.6755 17.5478 25.5728 18.3302C26.487 19.0781 27.1412 20.0294 27.5353 21.184C28.0082 22.5696 28.0534 24.0868 27.6708 25.7357C27.3051 27.3502 26.609 28.92 25.5825 30.4449C24.5473 31.9441 23.2539 33.3167 21.7024 34.5624C20.1509 35.8082 18.4515 36.7463 16.604 37.3769C14.6027 38.06 12.7137 38.275 10.9371 38.022C9.19493 37.7858 7.66402 37.1195 6.34436 36.0229C6.33821 35.1656 6.34774 34.1024 6.37293 32.8333C6.41502 31.5297 6.47809 30.1618 6.56213 28.7293C6.63741 27.2713 6.71707 25.826 6.80111 24.3936C6.91081 22.9524 7.0258 21.6526 7.1461 20.4943C7.37672 17.9805 7.63168 15.8738 7.911 14.1742C8.19032 12.4746 8.50621 11.092 8.85867 10.0263C7.59633 10.9442 6.48418 11.8824 5.52221 12.841C4.55149 13.7739 3.88429 14.5889 3.52062 15.286C3.23714 15.2109 2.91457 15.0631 2.55289 14.8428C2.21687 14.6137 1.87209 14.359 1.51855 14.0786C1.18191 13.7638 0.870938 13.4402 0.585619 13.1079C0.325958 12.7668 0.130752 12.4467 0 12.1475C0.509483 11.458 1.22016 10.7284 2.13204 9.95877C3.06082 9.15475 4.10129 8.38422 5.25347 7.64719C6.40565 6.91015 7.60538 6.2285 8.85266 5.60224C10.1256 4.96723 11.3651 4.44391 12.571 4.03229C15.65 2.98136 18.2721 2.77393 20.4373 3.41001C22.6025 4.04609 24.0572 5.45462 24.8017 7.6356ZM13.2774 21.8393C12.7111 21.7748 12.1439 21.5816 11.5757 21.2599C11.4322 22.7699 11.3056 24.2455 11.1959 25.6867C11.1118 27.1191 11.0485 28.4442 11.0058 29.662C10.963 30.8798 10.9491 31.9302 10.9641 32.8132C10.979 33.6962 11.0349 34.3217 11.1318 34.6897C11.5611 34.7723 12.037 34.7818 12.5596 34.718C13.1078 34.6455 13.7539 34.4822 14.498 34.2283C16.2428 33.6327 17.8274 32.8197 19.2519 31.7892C20.6763 30.7587 21.8514 29.6271 22.7771 28.3944C23.694 27.1361 24.3278 25.8455 24.6784 24.5226C25.029 23.1997 25.0029 21.9481 24.6 20.7678C24.022 19.0744 22.8748 18.1052 21.1582 17.8603C19.4371 19.3644 17.3193 20.5457 14.8047 21.4039C14.4455 21.5265 14.1633 21.6229 13.958 21.6929C13.7784 21.7542 13.5515 21.803 13.2774 21.8393ZM16.1857 5.93547C15.6468 6.11939 15.0826 6.35493 14.4931 6.64209C13.9205 6.89484 13.3225 7.19921 12.6992 7.55521C12.8368 7.62281 12.9532 7.712 13.0483 7.82278C13.1603 7.89914 13.2639 7.99271 13.359 8.10348C13.2332 8.49021 13.1042 9.03557 12.972 9.73957C12.8399 10.4436 12.7043 11.2633 12.5653 12.1989C12.4175 13.1088 12.2747 14.1172 12.1368 15.2242C12.0247 16.3225 11.9085 17.4508 11.7882 18.6091C12.1893 18.3576 12.689 18.101 13.2873 17.8395C13.9025 17.5436 14.518 17.2906 15.1338 17.0804C15.4674 16.9665 15.7925 16.8699 16.1092 16.7905C16.4515 16.7023 16.7854 16.6313 17.1108 16.5775C18.2723 15.9519 19.2749 15.2802 20.1186 14.5625C20.9792 13.8104 21.6811 13.0552 22.2244 12.2968C22.7589 11.5127 23.1091 10.7343 23.275 9.96147C23.441 9.18864 23.4013 8.44301 23.1561 7.72457C22.7357 6.49295 21.933 5.73564 20.7477 5.45263C19.5538 5.14397 18.0331 5.30491 16.1857 5.93547Z" fill="black"/>
<path d="M40.8701 11.9045C41.1368 11.8555 41.4532 11.8525 41.8195 11.8954C42.2075 11.9068 42.5629 11.9656 42.8856 12.0716C43.2034 12.1511 43.4704 12.2536 43.6864 12.3793C43.9292 12.5001 44.0628 12.6271 44.0873 12.7604C43.7598 13.9784 43.4748 15.2024 43.2323 16.4323C42.9848 17.6356 42.7967 18.7866 42.6678 19.8853C42.539 20.9841 42.4645 22.0039 42.4445 22.9449C42.4512 23.8809 42.5158 24.6822 42.6383 25.3489C42.7755 26.0955 42.9707 26.7074 43.2238 27.1847C43.472 27.6352 43.8024 27.9329 44.2149 28.0776C43.9341 28.3497 43.5527 28.599 43.0705 28.8255C42.5884 29.0519 42.1473 29.2019 41.7474 29.2754C40.3074 29.5401 39.4061 28.6858 39.0434 26.7125C38.7641 25.1926 38.8884 23.0196 39.4165 20.1935C39.1087 21.5181 38.7085 22.7908 38.2162 24.0115C37.7189 25.2055 37.1863 26.282 36.6183 27.241C36.0502 28.2 35.4419 29.0147 34.7933 29.6852C34.1665 30.3242 33.5562 30.7534 32.9625 30.9728C31.9661 31.1008 31.0804 30.7812 30.3053 30.0139C29.5254 29.2201 29.008 28.1298 28.7531 26.7432C28.4786 25.2499 28.5095 23.6179 28.8456 21.847C29.1817 20.0761 29.7131 18.3934 30.44 16.7988C31.1935 15.1993 32.0711 13.825 33.0729 12.6761C34.0697 11.5005 35.1099 10.7856 36.1934 10.5313C36.4747 10.5623 36.7974 10.6683 37.1615 10.8495C37.5523 11.0258 37.9237 11.247 38.2759 11.513C38.6547 11.7742 38.9826 12.0585 39.2596 12.366C39.5318 12.6467 39.7032 12.9047 39.774 13.1398C38.7368 13.4958 37.7257 14.2192 36.7409 15.3099C35.7827 16.3957 34.9521 17.651 34.2492 19.0758C33.568 20.469 33.064 21.9262 32.7371 23.4473C32.4102 24.9684 32.3595 26.3422 32.5849 27.5688C32.6781 28.0755 32.9235 28.3612 33.3214 28.4259C34.0653 28.1237 34.8385 27.3062 35.641 25.9734C36.4386 24.6139 37.3344 22.5885 38.3283 19.8973C38.5068 19.3683 38.7021 18.7811 38.9142 18.1356C39.153 17.4853 39.387 16.8083 39.616 16.1046C39.845 15.4009 40.0607 14.6997 40.2631 14.0009C40.4872 13.2705 40.6895 12.5718 40.8701 11.9045Z" fill="black"/>
<path d="M46.7225 27.2465C46.8051 26.4529 46.966 25.4096 47.2052 24.1164C47.4696 22.7943 47.7836 21.4009 48.1471 19.9363C48.5088 18.4447 48.8976 16.9512 49.3135 15.4559C49.7293 13.9606 50.1416 12.615 50.5504 11.4191C50.8457 10.5569 51.1132 9.8868 51.3528 9.40876C51.5906 8.90367 51.8609 8.47791 52.1637 8.13149C52.546 8.16015 52.9446 8.22847 53.3595 8.33647C53.7743 8.44446 54.1775 8.58041 54.5689 8.74433C54.9603 8.90824 55.3121 9.08841 55.6242 9.28483C55.9345 9.45419 56.1772 9.6281 56.3522 9.80655C55.68 10.7213 55.0971 11.7522 54.6035 12.8995C54.137 14.0449 53.6779 15.5024 53.2261 17.2718C54.5996 15.8752 55.801 14.5445 56.8301 13.2798C57.8863 12.0132 58.8522 10.6168 59.7279 9.09064C59.8811 8.94448 60.1606 8.85777 60.5664 8.83051C60.9451 8.80507 61.3148 8.84816 61.6756 8.95979C62.0345 9.04437 62.2889 9.19032 62.4387 9.39764C62.039 10.7288 61.8819 12.0301 61.9673 13.3015C62.0472 14.4917 62.283 15.3726 62.6747 15.9441C62.6585 16.1082 62.4901 16.432 62.1693 16.9155C61.8756 17.3972 61.5395 17.8546 61.161 18.2876C60.4052 17.9579 59.7214 17.4876 59.1097 16.8765C58.4962 16.2384 58.0279 15.5362 57.7046 14.7699C56.4932 15.748 55.4702 16.6999 54.6357 17.6255C53.7994 18.524 53.092 19.5226 52.5137 20.6212C51.9605 21.691 51.4995 22.9175 51.1305 24.301C50.7885 25.6826 50.4774 27.3203 50.197 29.2141C49.9517 29.2034 49.6478 29.1287 49.2853 28.9901C48.9516 28.8766 48.6016 28.7235 48.2354 28.5307C47.8963 28.3361 47.5832 28.1262 47.2964 27.9009C47.0095 27.6756 46.8182 27.4575 46.7225 27.2465Z" fill="black"/>
<path d="M62.7236 26.6212C62.8914 25.8412 63.164 24.8213 63.5415 23.5615C63.9471 22.2757 64.4097 20.9244 64.9293 19.5076C65.45 18.0637 65.9978 16.621 66.5727 15.1794C67.1475 13.7377 67.7027 12.4445 68.2382 11.2997C68.6249 10.4745 68.9632 9.83714 69.2531 9.38776C69.544 8.9113 69.8587 8.51723 70.1971 8.20553C70.5742 8.27531 70.9631 8.38628 71.3638 8.53844C71.7646 8.6906 72.1507 8.8693 72.5221 9.07452C72.8936 9.27975 73.2238 9.49685 73.5129 9.72582C73.8031 9.9277 74.0255 10.1268 74.1803 10.3231C73.4132 11.1599 72.7224 12.1219 72.1078 13.2091C71.5204 14.2975 70.9065 15.6968 70.2663 17.4071C71.7826 16.167 73.1206 14.9739 74.2803 13.8276C75.4671 12.6825 76.5782 11.3986 77.6136 9.97592C77.7817 9.84716 78.0689 9.79114 78.4752 9.80785C78.8545 9.82345 79.2174 9.90622 79.564 10.0562C79.9117 10.179 80.1488 10.3516 80.2753 10.5738C79.7342 11.8541 79.4375 13.1308 79.3851 14.404C79.3361 15.5959 79.4754 16.4971 79.803 17.1075C79.7693 17.2689 79.5668 17.5727 79.1957 18.0187C78.8517 18.4658 78.4682 18.8842 78.0451 19.2738C77.3293 18.8645 76.7003 18.3231 76.1582 17.6495C75.6172 16.9489 75.2274 16.2002 74.9888 15.4035C73.6789 16.245 72.5591 17.0809 71.6295 17.9109C70.701 18.7139 69.89 19.6303 69.1964 20.66C68.531 21.6638 67.9401 22.8334 67.4239 24.1689C66.9348 25.5055 66.4486 27.1001 65.9653 28.9525C65.7226 28.9154 65.4286 28.8083 65.0831 28.6313C64.7636 28.4825 64.4322 28.2925 64.089 28.0613C63.7728 27.8312 63.4843 27.5887 63.2235 27.3337C62.9626 27.0788 62.796 26.8413 62.7236 26.6212Z" fill="black"/>
<path d="M80.1195 26.033C80.1516 25.7911 80.2043 25.4973 80.2775 25.1514C80.3813 24.7823 80.5261 24.3092 80.7121 23.7322C80.9017 23.1284 81.1342 22.4071 81.4097 21.5685C81.712 20.7334 82.0778 19.729 82.5072 18.5553C82.5966 18.2937 82.7746 17.8797 83.0413 17.3134C83.3079 16.7471 83.6319 16.1611 84.0132 15.5553C84.4249 14.9262 84.8868 14.3311 85.3989 13.7701C85.9379 13.2126 86.536 12.8271 87.1934 12.6135C87.6361 12.7817 88.2033 13.1442 88.8952 13.701C89.5906 14.2309 90.1554 14.9213 90.5894 15.772C89.8785 16.3887 89.2616 17.0179 88.7388 17.6596C88.2429 18.3049 87.7703 18.9806 87.321 19.6867C86.8985 20.3964 86.486 21.1348 86.0833 21.9018C85.7075 22.6724 85.286 23.478 84.8188 24.3185C84.4233 25.0318 84.051 25.7755 83.7021 26.5497C83.3567 27.297 83.1313 27.9645 83.026 28.5522C82.9617 29.036 82.9037 29.3701 82.8518 29.5547C82.8233 29.7697 82.7418 29.8683 82.6074 29.8504C82.4999 29.8362 82.2938 29.7404 81.9892 29.5632C81.6845 29.386 81.3753 29.1399 81.0616 28.8247C80.7783 28.4862 80.5309 28.0842 80.3192 27.6185C80.1075 27.1528 80.041 26.6243 80.1195 26.033ZM90.1425 9.55897C90.164 9.39771 90.2364 9.16118 90.3598 8.84937C90.2433 8.69714 90.1491 8.47952 90.0773 8.19648C90.0324 7.91701 90.0242 7.66978 90.0527 7.45476C90.0848 7.21288 90.1545 6.89393 90.2618 6.49793C90.3995 6.07862 90.5543 5.63421 90.726 5.16471C90.8977 4.69522 91.0981 4.21585 91.3272 3.72661C91.5598 3.2105 91.7853 2.74814 92.0036 2.33953C92.3262 2.38235 92.7034 2.52816 93.1353 2.77696C93.5977 3.00245 94.0511 3.29513 94.4956 3.655C94.9437 3.98799 95.3461 4.35595 95.7029 4.75886C96.0632 5.1349 96.3312 5.48502 96.507 5.8092C96.1721 6.06559 95.7271 6.43042 95.1719 6.90372C94.6204 7.35013 94.0769 7.83865 93.5415 8.36926C93.0097 8.87299 92.5217 9.35521 92.0776 9.81589C91.6336 10.2766 91.3435 10.6073 91.2075 10.808C90.8921 10.7115 90.6277 10.5396 90.4144 10.2925C90.2046 10.0185 90.114 9.77398 90.1425 9.55897Z" fill="black"/>
<path d="M90.8883 27.9804C91.1318 26.8126 91.7508 25.2384 92.7454 23.2579C93.7455 21.2508 95.0432 18.9457 96.6384 16.3427C99.2193 12.2004 101.536 8.79234 103.589 6.11859C105.674 3.42383 107.581 1.3843 109.31 0C109.618 0.119495 109.975 0.332449 110.382 0.638864C110.815 0.950813 111.23 1.28654 111.626 1.64603C112.027 1.97899 112.373 2.31414 112.662 2.6515C112.979 2.9944 113.173 3.25654 113.246 3.43792C110.667 5.44802 108.301 7.69649 106.148 10.1833C103.996 12.6702 101.89 15.596 99.8313 18.961C98.0635 21.8604 96.6248 24.5099 95.5151 26.9096C94.411 29.2827 93.6846 31.3053 93.3359 32.9774C93.2418 33.4286 93.1837 33.7073 93.1616 33.8134C93.1394 33.9196 93.1306 34.0285 93.135 34.1402C92.7744 34.0097 92.4753 33.8504 92.2376 33.6623C91.9998 33.4743 91.8605 33.279 91.8196 33.0767C91.7942 32.9329 91.6898 32.7034 91.5062 32.3882C91.3172 32.0995 91.1436 31.8694 90.9855 31.698C90.7798 31.4889 90.6665 31.036 90.6457 30.3393C90.6303 29.616 90.7112 28.8297 90.8883 27.9804Z" fill="black"/>
<path d="M104.796 26.2927C105.002 25.5903 105.482 24.6293 106.236 23.4095C107.024 22.1714 107.953 20.8338 109.025 19.3967C110.105 17.9335 111.274 16.4543 112.533 14.959C113.799 13.4376 115.031 12.0333 116.228 10.7461C117.452 9.46646 118.575 8.38351 119.598 7.49721C120.629 6.5849 121.458 6.02304 122.085 5.81165C122.479 6.01192 122.864 6.33689 123.24 6.78656C123.65 7.21786 124.006 7.68972 124.308 8.20216C124.617 8.68858 124.867 9.18573 125.057 9.69362C125.247 10.2015 125.322 10.6192 125.282 10.9466C123.635 11.6496 121.92 12.6295 120.138 13.8864C118.364 15.1172 116.627 16.5569 114.928 18.2054C113.254 19.8616 111.669 21.699 110.172 23.7178C108.683 25.7105 107.386 27.8163 106.282 30.0353C105.993 29.8656 105.708 29.6828 105.426 29.4871C105.178 29.273 104.981 29.0313 104.834 28.7621C104.687 28.4929 104.602 28.1571 104.579 27.7547C104.555 27.3523 104.628 26.865 104.796 26.2927ZM100.901 36.3809C100.589 36.2893 100.313 36.1234 100.072 35.8833C99.8242 35.6692 99.6138 35.4237 99.4408 35.1468C99.2861 34.9036 99.1782 34.6458 99.1168 34.3735C99.0479 34.1272 99.0325 33.939 99.0707 33.809C99.1624 33.4968 99.3198 33.105 99.543 32.6337C99.7662 32.1624 100.021 31.7285 100.307 31.3321C100.6 30.9097 100.91 30.5768 101.236 30.3334C101.569 30.064 101.879 29.9713 102.165 30.0553C102.894 30.2692 103.546 30.7433 104.121 31.4774C104.73 32.1932 105.125 32.9168 105.306 33.6481C104.895 33.8946 104.511 34.1915 104.155 34.539C103.791 34.9125 103.438 35.2469 103.097 35.5424C102.748 35.8638 102.393 36.1126 102.03 36.2887C101.667 36.4648 101.291 36.4955 100.901 36.3809Z" fill="#FB3B00"/>
<path d="M117.458 30.6779C117.724 29.996 118.286 29.08 119.142 27.93C120.034 26.7646 121.076 25.5124 122.268 24.1733C123.47 22.809 124.762 21.4363 126.146 20.0554C127.539 18.6492 128.887 17.3567 130.191 16.1778C131.521 15.0087 132.734 14.027 133.83 13.2324C134.936 12.4127 135.81 11.9246 136.453 11.7682C136.828 12.0017 137.183 12.3587 137.519 12.8393C137.891 13.3044 138.205 13.8053 138.461 14.3419C138.727 14.8532 138.933 15.3701 139.078 15.8925C139.223 16.4149 139.262 16.8375 139.194 17.1603C137.492 17.7182 135.699 18.5462 133.815 19.6443C131.941 20.7172 130.086 22.0013 128.251 23.4968C126.441 25.0021 124.703 26.6956 123.037 28.5774C121.381 30.4338 119.907 32.4197 118.615 34.535C118.342 34.3409 118.073 34.1342 117.81 33.9148C117.581 33.6801 117.405 33.4223 117.282 33.1413C117.159 32.8604 117.103 32.5185 117.115 32.1156C117.127 31.7128 117.241 31.2335 117.458 30.6779ZM112.705 40.3916C112.402 40.2733 112.142 40.0842 111.923 39.8242C111.694 39.5894 111.506 39.3267 111.357 39.0359C111.224 38.7802 111.139 38.5141 111.102 38.2375C111.054 37.9861 111.055 37.7973 111.104 37.6711C111.223 37.368 111.413 36.9913 111.677 36.541C111.94 36.0908 112.231 35.6805 112.55 35.3103C112.879 34.9149 113.216 34.61 113.562 34.3957C113.917 34.1561 114.234 34.0905 114.512 34.199C115.219 34.4751 115.828 35.0037 116.338 35.7849C116.883 36.5507 117.214 37.3056 117.331 38.0498C116.899 38.2598 116.491 38.5225 116.106 38.8379C115.711 39.1785 115.331 39.4812 114.966 39.746C114.591 40.0361 114.215 40.2532 113.838 40.3973C113.462 40.5414 113.084 40.5395 112.705 40.3916Z" fill="#FB3B00"/>
</svg>