<svg width="971" height="1014" viewBox="0 0 971 1014" fill="none" xmlns="http://www.w3.org/2000/svg">
<path fill-rule="evenodd" clip-rule="evenodd" d="M-22.2044 353.082C44.4447 233.959 -57.3837 113.725 -43 66C-22.2044 -3.00001 7.9522e-08 -31.5 42.5 -54C61.5697 -64.0957 331.169 -108.942 421.66 -94.1253C483.5 -84 676 22 730.157 78.478C768.535 118.5 960.946 261.952 969.806 412.012C978.848 565.167 899.253 713.088 796.199 824.029C701.073 926.434 563.718 965.969 428.82 994.401C307.274 1020.02 181.015 1025.95 66.067 977.92C-43.7293 932.043 -47.2822 831.286 -133 686.5C-189.179 591.61 -76.3211 449.805 -22.2044 353.082Z" fill="#DA803C" fill-opacity="0.4"/>
<path fill-rule="evenodd" clip-rule="evenodd" d="M700.088 207.506C764.946 274.811 865.73 310.075 896.016 398.376C929.696 496.573 926.451 614.397 868.948 699.832C812.024 784.408 698.466 799.277 602.655 834.237C510.417 867.894 420.764 906.625 322.488 899.232C209.193 890.709 86.3219 872.335 7.72626 789.482C-93.2841 683 -11.7913 561.306 -4.99992 445.5C1.26892 338.604 -13.9998 169.337 -13.9998 -14C90.5 -23 181.5 -23 268 -23C383.275 -23 451.251 -14.0281 535.412 24.1689C611.946 58.9046 641.659 146.874 700.088 207.506Z" stroke="#FB3B00" stroke-width="2"/>
</svg>