<svg width="723" height="714" viewBox="0 0 723 714" fill="none" xmlns="http://www.w3.org/2000/svg">
<path fill-rule="evenodd" clip-rule="evenodd" d="M374.148 55.7951C440.108 51.2644 505.07 12.3548 566.663 36.3851C635.159 63.1083 697.476 119.05 717.564 189.777C737.449 259.792 693.818 328.735 669.142 397.208C645.387 463.128 625.554 529.968 576.824 580.319C520.647 638.364 454.778 697.118 374.148 702.014C291.855 707.012 212.374 663.023 152.763 606.07C97.7389 553.498 76.4964 477.588 61.2189 403.036C47.4537 335.863 44.2675 266.086 70.0749 202.56C94.7256 141.88 140.951 90.0448 199.936 61.5755C253.575 35.6859 314.728 59.8767 374.148 55.7951Z" fill="#DA803C" fill-opacity="0.4"/>
<path fill-rule="evenodd" clip-rule="evenodd" d="M342.775 29.9103C412.436 25.1253 481.044 -15.9678 546.094 9.411C618.433 37.6338 684.248 96.7148 705.463 171.411C726.464 245.354 680.384 318.167 654.324 390.483C629.235 460.102 608.29 530.693 556.825 583.869C497.496 645.172 427.93 707.223 342.775 712.394C255.864 717.672 171.923 671.214 108.967 611.065C50.8544 555.543 28.4198 475.373 12.285 396.638C-2.25266 325.695 -5.61764 252.002 21.638 184.911C47.672 120.826 96.4919 66.082 158.786 36.015C215.436 8.67255 280.02 34.2209 342.775 29.9103Z" stroke="#FB3B00" stroke-width="2"/>
</svg>
