<svg width="901" height="979" viewBox="0 0 901 979" fill="none" xmlns="http://www.w3.org/2000/svg">
<path fill-rule="evenodd" clip-rule="evenodd" d="M446.979 31.7553C525.786 26.4633 603.401 -18.9836 676.991 9.08406C758.828 40.2971 833.283 105.638 857.283 188.248C881.042 270.026 828.912 350.553 799.43 430.531C771.048 507.527 747.353 585.596 689.131 644.406C622.012 712.205 543.314 780.83 446.979 786.549C348.657 792.386 253.695 741.006 182.473 674.484C116.731 613.08 91.3513 524.416 73.0981 437.338C56.6518 358.879 52.845 277.378 83.679 203.178C113.131 132.304 168.361 71.7594 238.833 38.5068C302.92 8.26737 375.985 36.5226 446.979 31.7553Z" fill="#DA803C" fill-opacity="0.4"/>
<path fill-rule="evenodd" clip-rule="evenodd" d="M433.36 113.448C521.538 107.391 608.382 55.3749 690.723 87.4997C782.291 123.224 865.6 198.01 892.454 292.561C919.037 386.16 860.709 478.326 827.721 569.865C795.964 657.99 769.451 747.344 704.307 814.655C629.207 892.253 541.15 970.798 433.36 977.343C323.347 984.024 217.093 925.218 137.403 849.08C63.8434 778.8 35.4455 677.32 15.0219 577.655C-3.38013 487.856 -7.63955 394.575 26.8609 309.649C59.8151 228.53 121.612 159.234 200.465 121.175C272.172 86.5649 353.924 118.904 433.36 113.448Z" stroke="#FB3B00" stroke-width="2"/>
</svg>
