<svg width="1049" height="347" viewBox="0 0 1049 347" fill="none" xmlns="http://www.w3.org/2000/svg">
<path fill-rule="evenodd" clip-rule="evenodd" d="M448.223 -163.095C561.754 -166.658 673.567 -197.255 779.582 -178.359C897.478 -157.345 1004.74 -113.354 1039.31 -57.7375C1073.54 -2.68056 998.442 51.5339 955.97 105.379C915.081 157.216 880.946 209.776 797.072 249.37C700.379 295.015 587.005 341.216 448.223 345.066C306.579 348.996 169.776 314.405 67.1727 269.619C-27.5359 228.279 -64.0988 168.586 -90.3945 109.961C-114.087 57.1394 -119.572 2.26938 -75.1515 -47.6856C-32.7225 -95.4014 46.8418 -136.163 148.366 -158.55C240.691 -178.909 345.948 -159.886 448.223 -163.095Z" stroke="#FB3B00" stroke-width="2"/>
</svg>
