<svg width="475" height="449" viewBox="0 0 475 449" fill="none" xmlns="http://www.w3.org/2000/svg">
<g clip-path="url(#clip0)">
<path d="M475 446.633H154.462V448.016H475V446.633Z" fill="#3F3D56"/>
<path d="M415.18 211.54C415.797 212.265 416.255 213.111 416.524 214.024C416.793 214.937 416.867 215.897 416.742 216.841C416.617 217.784 416.295 218.691 415.797 219.503C415.298 220.314 414.635 221.012 413.851 221.55L380.678 244.326L366.07 254.064C365.24 254.618 364.235 254.842 363.248 254.695C362.262 254.547 361.366 254.038 360.734 253.266C360.366 252.816 360.1 252.291 359.955 251.729C359.809 251.166 359.787 250.578 359.891 250.006C359.995 249.434 360.222 248.891 360.556 248.415C360.89 247.94 361.323 247.542 361.826 247.25L375.974 239.035L400.666 215.518L384.793 198.469L396.551 189.65L415.18 211.54Z" fill="#A0616A"/>
<path d="M337.173 425.99H329.058L324.238 358.968L344.815 358.38L337.173 425.99Z" fill="#A0616A"/>
<path d="M337.76 447.743C335.597 448.73 333.784 440.73 331.959 442.523C326.854 447.54 319.037 448.633 312.223 446.442L314.607 446.416C314.196 446.284 313.816 446.069 313.49 445.786C313.164 445.503 312.899 445.156 312.711 444.767C312.523 444.378 312.416 443.955 312.396 443.524C312.376 443.092 312.444 442.661 312.596 442.257C312.777 441.773 313.074 441.34 313.459 440.996C313.845 440.652 314.309 440.407 314.81 440.282L320.239 438.924L328.764 423.933L337.466 423.345C339.406 425.818 340.76 428.699 341.427 431.771C342.093 434.843 342.053 438.027 341.312 441.081C340.522 444.305 339.303 447.039 337.76 447.743Z" fill="#2F2E41"/>
<path d="M391.202 425.99H383.087L378.268 358.968L399.432 354.853L391.202 425.99Z" fill="#A0616A"/>
<path d="M391.79 447.743C389.626 448.73 387.814 440.73 385.989 442.523C380.884 447.54 373.066 448.633 366.252 446.442L368.637 446.416C368.226 446.284 367.846 446.069 367.52 445.786C367.194 445.503 366.929 445.156 366.741 444.767C366.552 444.378 366.445 443.955 366.426 443.524C366.406 443.092 366.474 442.661 366.625 442.257C366.807 441.773 367.103 441.34 367.489 440.996C367.874 440.652 368.338 440.407 368.839 440.282L374.269 438.924L382.793 423.933L392.084 422.757L392.318 423.141C394.114 426.035 395.272 429.28 395.715 432.657C396.158 436.035 395.875 439.468 394.885 442.728C394.113 445.203 393.061 447.163 391.79 447.743Z" fill="#2F2E41"/>
<path d="M400.403 191.167C392.94 192.205 387.774 196.291 385.67 204.444L371.954 179.118C371.14 177.509 370.934 175.66 371.373 173.911C371.812 172.162 372.866 170.629 374.343 169.595C375.911 168.496 377.839 168.039 379.732 168.316C381.626 168.593 383.342 169.584 384.529 171.086L400.403 191.167Z" fill="#FB3B00"/>
<path d="M414.776 351.914C381.426 366.67 347.295 368.486 312.48 358.969C325.193 309.661 340.205 265.077 340.112 228.453L374.211 225.513L379.461 233.836C391.917 253.584 400.516 275.515 404.8 298.467L414.776 351.914Z" fill="#2F2E41"/>
<path d="M358.925 152.612C368.666 152.612 376.562 144.716 376.562 134.975C376.562 125.234 368.666 117.338 358.925 117.338C349.184 117.338 341.288 125.234 341.288 134.975C341.288 144.716 349.184 152.612 358.925 152.612Z" fill="#A0616A"/>
<path d="M378.326 166.134L356.574 167.31L353.046 147.909L370.683 144.969L378.326 166.134Z" fill="#A0616A"/>
<path d="M375.974 228.453L352.143 229.124L340.112 230.804C334.206 211.296 329.234 191.832 341.288 175.541L355.398 161.431L376.562 160.843L376.843 161.003C380.204 162.929 382.809 165.942 384.228 169.546C385.648 173.151 385.797 177.131 384.651 180.831C379.399 197.899 376.025 214.016 375.974 228.453Z" fill="#FB3B00"/>
<path d="M339.524 283.128L338.046 303.331C337.967 304.413 337.499 305.43 336.729 306.195C335.96 306.96 334.94 307.421 333.857 307.493C333.233 307.534 332.608 307.445 332.02 307.232C331.432 307.018 330.896 306.684 330.444 306.252C329.993 305.819 329.637 305.298 329.398 304.72C329.16 304.142 329.044 303.52 329.059 302.895L329.53 283.128L344.227 227.277L344.815 193.178L361.277 192.59L360.101 231.98L339.524 283.128Z" fill="#A0616A"/>
<path d="M363.041 195.53C356.061 192.692 349.543 193.642 343.64 199.645L344.448 170.855C344.55 169.054 345.298 167.351 346.553 166.057C347.809 164.762 349.489 163.964 351.286 163.808C353.193 163.642 355.091 164.211 356.591 165.4C358.091 166.588 359.081 168.305 359.356 170.199L363.041 195.53Z" fill="#FB3B00"/>
<path d="M396.257 213.461H342.169C354.787 180.049 358.856 148.966 342.169 122.335C342.456 114.336 352.715 107.402 360.682 108.168C370.092 109.073 382.736 115.987 384.499 125.274L396.257 213.461Z" fill="#2F2E41"/>
<path d="M223.882 106.699H221.415V39.1156C221.415 33.9789 220.404 28.8924 218.438 24.1467C216.472 19.401 213.591 15.0889 209.959 11.4567C206.327 7.82445 202.014 4.94322 197.269 2.97748C192.523 1.01175 187.437 7.49479e-06 182.3 2.28884e-05H39.1155C33.9788 1.15457e-05 28.8924 1.01176 24.1466 2.9775C19.4009 4.94324 15.0889 7.82446 11.4567 11.4567C7.82445 15.0889 4.94322 19.401 2.97748 24.1467C1.01174 28.8924 -5.67128e-06 33.9789 0 39.1156V409.884C-4.05091e-06 415.021 1.01174 420.108 2.97748 424.853C4.94322 429.599 7.82445 433.911 11.4567 437.543C15.0889 441.176 19.4009 444.057 24.1466 446.023C28.8924 447.988 33.9788 449 39.1155 449H182.3C187.437 449 192.523 447.988 197.269 446.023C202.014 444.057 206.327 441.176 209.959 437.543C213.591 433.911 216.472 429.599 218.438 424.853C220.404 420.108 221.415 415.021 221.415 409.884V154.806H223.882V106.699Z" fill="#3F3D56"/>
<path d="M183.878 10.1765H165.188C166.047 12.2838 166.375 14.5701 166.143 16.8341C165.911 19.098 165.125 21.2701 163.856 23.159C162.587 25.0479 160.872 26.5956 158.864 27.6658C156.855 28.736 154.614 29.2959 152.339 29.2961H70.31C68.0341 29.2959 65.7933 28.736 63.7848 27.6658C61.7763 26.5956 60.0619 25.0479 58.7924 23.159C57.523 21.2701 56.7376 19.098 56.5054 16.8341C56.2731 14.5701 56.6012 12.2838 57.4608 10.1765H40.004C36.1679 10.1765 32.3695 10.9321 28.8254 12.4001C25.2814 13.8681 22.0612 16.0197 19.3487 18.7322C16.6362 21.4447 14.4845 24.6649 13.0165 28.209C11.5485 31.753 10.793 35.5515 10.793 39.3876V409.612C10.793 413.448 11.5485 417.247 13.0165 420.791C14.4845 424.335 16.6362 427.555 19.3487 430.268C22.0612 432.98 25.2814 435.132 28.8254 436.6C32.3695 438.068 36.1679 438.823 40.004 438.823H183.878C187.714 438.823 191.513 438.068 195.057 436.6C198.601 435.132 201.821 432.98 204.533 430.268C207.246 427.555 209.397 424.335 210.865 420.791C212.333 417.247 213.089 413.448 213.089 409.612V39.3875C213.089 31.6403 210.011 24.2104 204.533 18.7322C199.055 13.2541 191.625 10.1765 183.878 10.1765Z" fill="white"/>
<path d="M187.825 68.0083H36.0571V198.184H187.825V68.0083Z" fill="#E6E6E6"/>
<path d="M81.0938 225.33C87.2269 225.33 92.1988 220.358 92.1988 214.225C92.1988 208.091 87.2269 203.12 81.0938 203.12C74.9606 203.12 69.9888 208.091 69.9888 214.225C69.9888 220.358 74.9606 225.33 81.0938 225.33Z" fill="#FB3B00"/>
<path d="M86.647 213.299H82.0199V208.672H80.1691V213.299H75.542V215.15H80.1691V219.777H82.0199V215.15H86.647V213.299Z" fill="white"/>
<path d="M139.704 225.33C145.837 225.33 150.809 220.358 150.809 214.225C150.809 208.091 145.837 203.12 139.704 203.12C133.571 203.12 128.599 208.091 128.599 214.225C128.599 220.358 133.571 225.33 139.704 225.33Z" fill="#FB3B00"/>
<path d="M145.256 215.15V213.299H134.151V215.15H145.256Z" fill="white"/>
<path d="M117.602 84.2431H105.608C105.186 84.2431 104.782 84.4107 104.484 84.7089C104.186 85.0071 104.018 85.4115 104.018 85.8332V91.0976C104.018 91.5193 104.186 91.9237 104.484 92.2219C104.782 92.5201 105.186 92.6877 105.608 92.6877H107.596V100.575H115.614V92.6877H117.602C118.023 92.6877 118.428 92.5201 118.726 92.2219C119.024 91.9237 119.192 91.5193 119.192 91.0976V85.8332C119.192 85.4115 119.024 85.0071 118.726 84.7089C118.428 84.4107 118.023 84.2431 117.602 84.2431Z" fill="#FB3B00"/>
<path d="M129.615 132.422C122.269 121.674 118.514 108.877 118.887 95.8643C118.894 95.5641 118.797 95.2707 118.612 95.0342C118.427 94.7976 118.165 94.6324 117.872 94.5666V92.2919H105.206V94.535H105.031C104.86 94.5352 104.691 94.569 104.534 94.6346C104.376 94.7001 104.233 94.796 104.113 94.9168C103.992 95.0377 103.896 95.1811 103.831 95.3389C103.766 95.4967 103.733 95.6657 103.733 95.8364C103.733 95.868 103.734 95.8995 103.737 95.931C104.735 109.842 101.365 122.316 93.6276 133.355C93.1824 133.99 92.9549 134.751 92.9793 135.526L94.3644 178.37C94.3977 179.325 94.7987 180.231 95.4839 180.898C96.169 181.565 97.0853 181.942 98.0415 181.949H126.692C127.659 181.941 128.585 181.556 129.272 180.876C129.959 180.195 130.354 179.273 130.371 178.306L130.905 136.709C130.921 135.182 130.471 133.687 129.615 132.422Z" fill="#3F3D56"/>
<path opacity="0.2" d="M115.101 85.9585C115.101 86.8683 114.74 87.7409 114.097 88.3842C113.453 89.0276 112.581 89.389 111.671 89.389C110.761 89.389 109.888 89.0276 109.245 88.3842C108.602 87.7409 108.24 86.8683 108.24 85.9585" fill="black"/>
<path d="M125.079 146.654H121.61C121.279 144.504 120.189 142.545 118.539 141.129C116.888 139.713 114.785 138.935 112.61 138.935C110.436 138.935 108.333 139.713 106.682 141.129C105.032 142.545 103.942 144.504 103.611 146.654H100.141C99.7722 146.654 99.4074 146.733 99.072 146.888C98.7366 147.042 98.4386 147.267 98.1982 147.547C97.9578 147.827 97.7809 148.156 97.6795 148.511C97.5781 148.866 97.5547 149.238 97.6108 149.603L101.379 174.098H123.018L127.596 149.686C127.665 149.316 127.652 148.935 127.558 148.571C127.463 148.207 127.29 147.868 127.049 147.579C126.809 147.289 126.508 147.056 126.168 146.896C125.827 146.736 125.455 146.654 125.079 146.654V146.654Z" fill="#FB3B00"/>
<path d="M187.825 251.241H36.0571V381.417H187.825V251.241Z" fill="#E6E6E6"/>
<path d="M81.0938 408.563C87.2269 408.563 92.1988 403.591 92.1988 397.458C92.1988 391.324 87.2269 386.353 81.0938 386.353C74.9606 386.353 69.9888 391.324 69.9888 397.458C69.9888 403.591 74.9606 408.563 81.0938 408.563Z" fill="#FB3B00"/>
<path d="M86.647 396.532H82.0199V391.905H80.1691V396.532H75.542V398.383H80.1691V403.01H82.0199V398.383H86.647V396.532Z" fill="white"/>
<path d="M139.704 408.563C145.837 408.563 150.809 403.591 150.809 397.458C150.809 391.324 145.837 386.353 139.704 386.353C133.571 386.353 128.599 391.324 128.599 397.458C128.599 403.591 133.571 408.563 139.704 408.563Z" fill="#FB3B00"/>
<path d="M145.256 398.383V396.532H134.151V398.383H145.256Z" fill="white"/>
<path d="M141.819 343.72L141.902 343.72C144.76 343.744 147.558 342.906 149.933 341.316C152.307 339.726 154.146 337.457 155.212 334.805C158.569 326.317 159.355 317.028 157.472 308.096C155.589 299.164 151.12 290.983 144.622 284.572C138.124 278.161 129.884 273.803 120.927 272.041C111.971 270.279 102.693 271.19 94.251 274.662C85.8085 278.133 78.5737 284.011 73.4473 291.564C68.321 299.117 65.5296 308.011 65.4208 317.139C65.312 326.267 67.8905 335.225 72.8353 342.898C77.7801 350.571 84.8728 356.62 93.2301 360.291C95.8276 361.441 98.712 361.78 101.505 361.262C104.298 360.744 106.869 359.394 108.882 357.389C113.198 353.05 118.331 349.608 123.984 347.262C129.637 344.916 135.698 343.712 141.819 343.72Z" fill="white"/>
<path d="M117.916 329.635C126.403 329.635 133.282 322.756 133.282 314.269C133.282 305.783 126.403 298.904 117.916 298.904C109.43 298.904 102.551 305.783 102.551 314.269C102.551 322.756 109.43 329.635 117.916 329.635Z" fill="#F9A825"/>
</g>
<defs>
<clipPath id="clip0">
<rect width="475" height="449" fill="white"/>
</clipPath>
</defs>
</svg>