<svg width="180" height="140" viewBox="0 0 180 140" fill="none" xmlns="http://www.w3.org/2000/svg">
<mask id="path-1-inside-1" fill="white">
<path d="M115.317 72.6358C106.898 70.478 97.2751 69.3423 86.9345 69.3423C75.7788 69.3423 65.2859 70.732 56.2744 73.3095L56.2744 80.3644C63.5454 78.7691 73.1364 77.5205 85.3458 77.5205C97.7506 77.5205 107.698 78.6861 115.317 80.1603L115.317 72.6358ZM136.691 87.043L136.691 84.8061C136.691 83.0658 135.691 81.433 133.949 80.3262C129.547 77.5299 124.281 75.2299 118.34 73.4697L118.34 80.786C121.418 81.4665 124.046 82.1841 126.237 82.8651C131.254 84.4247 134.676 85.9877 136.691 87.043ZM53.2517 81.0788L53.2517 74.2369C47.5903 76.0967 42.5998 78.4549 38.5126 81.2538C36.9302 82.3375 36.0225 83.9094 36.0225 85.5665L36.0225 88.0435C37.8394 86.8652 40.9138 85.1559 45.5231 83.4542C47.6317 82.676 50.1988 81.8542 53.2517 81.0788ZM115.317 82.5767C107.833 81.0784 97.8944 79.8633 85.3458 79.8633C73.1131 79.8633 63.5635 81.1236 56.2744 82.7995L56.2744 93.2567C63.6736 92.5935 73.2279 92.1081 85.3461 92.1081C97.6569 92.1081 107.556 92.5598 115.317 93.171L115.317 82.5767ZM136.691 89.9469C135.788 89.3793 132.017 87.1679 124.92 84.9802C123.058 84.4062 120.867 83.8051 118.34 83.2253L118.34 93.4261C128.108 94.3078 133.997 95.4119 136.691 96.0064L136.691 89.9469ZM53.2517 93.5488L53.2517 83.5503C41.1214 86.7971 36.3148 91.0226 36.2389 91.0917C36.1724 91.1521 36.0999 91.2058 36.0225 91.2529L36.0225 96.4353C38.4594 95.7628 43.8437 94.5278 53.2517 93.5488ZM115.317 95.5423C107.59 94.919 97.6795 94.4505 85.3461 94.4505C73.1717 94.4505 63.6122 94.956 56.2744 95.6311L56.2744 106.717C64.1941 107.398 74.5603 107.926 87.6567 107.926C99.0666 107.926 108.178 107.482 115.317 106.871L115.317 95.5423ZM136.691 98.4537C134.775 98.0041 128.918 96.7806 118.34 95.8035L118.34 106.591C129.38 105.49 134.982 104.029 136.691 103.52L136.691 98.4537ZM53.2517 106.439L53.2517 95.9314C42.439 97.0875 37.2494 98.5598 36.0225 98.9447L36.0225 103.854C37.509 104.216 42.9834 105.43 53.2517 106.439ZM136.691 111.347L136.691 106.02C134 106.742 128.254 108.007 118.34 108.97L118.34 119.191C130.703 116.107 136.022 111.908 136.691 111.347ZM53.2517 108.82C43.9715 107.928 38.4491 106.855 36.0225 106.306L36.0225 112.243C36.0476 112.258 36.0724 112.275 36.0966 112.291C36.1606 112.335 39.9233 114.882 48.0826 117.397C49.5888 117.861 51.3106 118.343 53.2517 118.818L53.2517 108.82ZM87.6567 110.269C74.586 110.269 64.2355 109.76 56.2744 109.092L56.2744 119.509C63.9039 121.137 74.3022 122.514 87.6564 122.514C99.115 122.514 108.22 121.408 115.317 119.891L115.317 109.243C108.126 109.842 99.0177 110.269 87.6567 110.269ZM118.34 128.012C124.281 126.251 129.547 123.951 133.949 121.155C135.692 120.048 136.691 118.415 136.691 116.675L136.691 114.518C134.844 115.686 131.853 117.308 127.479 118.922C125.053 119.818 122.021 120.771 118.34 121.644L118.34 128.012ZM53.2517 121.269C50.7737 120.687 48.6131 120.086 46.7654 119.512C41.5005 117.875 37.9918 116.234 36.0225 115.181L36.0225 115.915C36.0225 117.572 36.9302 119.144 38.5126 120.228C42.5998 123.027 47.5903 125.385 53.2517 127.244L53.2517 121.269ZM87.6564 124.856C74.4709 124.856 64.0623 123.539 56.2744 121.934L56.2744 128.172C65.2856 130.749 75.7785 132.139 86.9345 132.139C97.2751 132.139 106.898 131.003 115.317 128.845L115.317 122.311C108.231 123.761 99.0917 124.856 87.6564 124.856Z"/>
<path fill-rule="evenodd" clip-rule="evenodd" d="M135.865 78.5144C132.34 76.2759 128.299 74.34 123.828 72.7285L120.805 71.7088C111.047 68.6332 99.4865 67 86.9345 67C75.2673 67 64.2727 68.4836 54.8277 71.2333C54.397 71.2223 53.9895 71.3499 53.7024 71.569L50.6187 72.5784C45.2477 74.4569 40.4818 76.7793 36.5113 79.4983C34.2796 81.0264 32.9998 83.2382 32.9998 85.5665L32.9998 115.914C32.9998 118.243 34.2796 120.455 36.5116 121.983C48.1099 129.926 66.4883 134.481 86.9345 134.481C106.798 134.481 124.176 130.392 135.865 122.967C138.31 121.413 139.713 119.12 139.713 116.675L139.713 92.3981L139.713 90.0558L139.713 84.8061C139.713 82.3614 138.311 80.068 135.865 78.5144ZM86.9345 69.3423C97.2751 69.3423 106.898 70.478 115.317 72.6358L115.317 80.1603C107.698 78.6861 97.7506 77.5205 85.3458 77.5205C73.1364 77.5205 63.5454 78.7691 56.2744 80.3644L56.2744 73.3095C65.2859 70.732 75.7788 69.3423 86.9345 69.3423ZM136.691 84.8061L136.691 87.043C134.676 85.9877 131.254 84.4247 126.237 82.8651C124.046 82.1841 121.418 81.4665 118.34 80.786L118.34 73.4697C124.281 75.2299 129.547 77.5299 133.949 80.3262C135.691 81.433 136.691 83.0658 136.691 84.8061ZM53.2517 74.2369L53.2517 81.0788C50.1988 81.8542 47.6317 82.676 45.5231 83.4542C40.9138 85.1559 37.8394 86.8652 36.0225 88.0435L36.0225 85.5665C36.0225 83.9094 36.9302 82.3375 38.5126 81.2538C42.5998 78.4549 47.5903 76.0967 53.2517 74.2369ZM85.3458 79.8633C97.8944 79.8633 107.833 81.0784 115.317 82.5767L115.317 93.171C107.556 92.5598 97.6569 92.1081 85.3461 92.1081C73.2279 92.1081 63.6736 92.5935 56.2744 93.2567L56.2744 82.7995C63.5635 81.1236 73.1131 79.8633 85.3458 79.8633ZM124.92 84.9802C132.017 87.1679 135.788 89.3793 136.691 89.9469L136.691 96.0064C133.997 95.4119 128.108 94.3078 118.34 93.4261L118.34 83.2253C120.867 83.8051 123.058 84.4062 124.92 84.9802ZM53.2517 83.5503L53.2517 93.5488C43.8437 94.5278 38.4594 95.7628 36.0225 96.4353L36.0225 91.2529C36.0999 91.2058 36.1724 91.1521 36.2389 91.0917C36.3148 91.0226 41.1214 86.7971 53.2517 83.5503ZM85.3461 94.4505C97.6795 94.4505 107.59 94.919 115.317 95.5423L115.317 106.871C108.178 107.482 99.0666 107.926 87.6567 107.926C74.5603 107.926 64.1941 107.398 56.2744 106.717L56.2744 95.6311C63.6122 94.956 73.1717 94.4505 85.3461 94.4505ZM118.34 95.8035C128.918 96.7806 134.775 98.0041 136.691 98.4537L136.691 103.52C134.982 104.029 129.38 105.49 118.34 106.591L118.34 95.8035ZM53.2517 95.9314L53.2517 106.439C42.9834 105.43 37.509 104.216 36.0225 103.854L36.0225 98.9447C37.2494 98.5598 42.439 97.0875 53.2517 95.9314ZM136.691 106.02L136.691 111.347C136.022 111.908 130.703 116.107 118.34 119.191L118.34 108.97C128.254 108.007 134 106.742 136.691 106.02ZM36.0225 106.306C38.4491 106.855 43.9715 107.928 53.2517 108.82L53.2517 118.818C51.3106 118.343 49.5888 117.861 48.0826 117.397C39.9233 114.882 36.1606 112.335 36.0966 112.291C36.0724 112.275 36.0476 112.258 36.0225 112.243L36.0225 106.306ZM56.2744 109.092C64.2355 109.76 74.586 110.269 87.6567 110.269C99.0177 110.269 108.126 109.842 115.317 109.243L115.317 119.891C108.22 121.408 99.115 122.514 87.6564 122.514C74.3022 122.514 63.9039 121.137 56.2744 119.509L56.2744 109.092ZM133.949 121.155C129.547 123.951 124.281 126.251 118.34 128.012L118.34 121.644C122.021 120.771 125.053 119.818 127.479 118.922C131.853 117.308 134.844 115.686 136.691 114.518L136.691 116.675C136.691 118.415 135.692 120.048 133.949 121.155ZM46.7654 119.512C48.6131 120.086 50.7737 120.687 53.2517 121.269L53.2517 127.244C47.5903 125.385 42.5998 123.027 38.5126 120.228C36.9302 119.144 36.0225 117.572 36.0225 115.915L36.0225 115.181C37.9918 116.234 41.5005 117.875 46.7654 119.512ZM56.2744 121.934C64.0623 123.539 74.4709 124.856 87.6564 124.856C99.0917 124.856 108.231 123.761 115.317 122.311L115.317 128.845C106.898 131.003 97.2751 132.139 86.9345 132.139C75.7785 132.139 65.2856 130.749 56.2744 128.172L56.2744 121.934Z"/>
</mask>
<path d="M115.317 72.6358C106.898 70.478 97.2751 69.3423 86.9345 69.3423C75.7788 69.3423 65.2859 70.732 56.2744 73.3095L56.2744 80.3644C63.5454 78.7691 73.1364 77.5205 85.3458 77.5205C97.7506 77.5205 107.698 78.6861 115.317 80.1603L115.317 72.6358ZM136.691 87.043L136.691 84.8061C136.691 83.0658 135.691 81.433 133.949 80.3262C129.547 77.5299 124.281 75.2299 118.34 73.4697L118.34 80.786C121.418 81.4665 124.046 82.1841 126.237 82.8651C131.254 84.4247 134.676 85.9877 136.691 87.043ZM53.2517 81.0788L53.2517 74.2369C47.5903 76.0967 42.5998 78.4549 38.5126 81.2538C36.9302 82.3375 36.0225 83.9094 36.0225 85.5665L36.0225 88.0435C37.8394 86.8652 40.9138 85.1559 45.5231 83.4542C47.6317 82.676 50.1988 81.8542 53.2517 81.0788ZM115.317 82.5767C107.833 81.0784 97.8944 79.8633 85.3458 79.8633C73.1131 79.8633 63.5635 81.1236 56.2744 82.7995L56.2744 93.2567C63.6736 92.5935 73.2279 92.1081 85.3461 92.1081C97.6569 92.1081 107.556 92.5598 115.317 93.171L115.317 82.5767ZM136.691 89.9469C135.788 89.3793 132.017 87.1679 124.92 84.9802C123.058 84.4062 120.867 83.8051 118.34 83.2253L118.34 93.4261C128.108 94.3078 133.997 95.4119 136.691 96.0064L136.691 89.9469ZM53.2517 93.5488L53.2517 83.5503C41.1214 86.7971 36.3148 91.0226 36.2389 91.0917C36.1724 91.1521 36.0999 91.2058 36.0225 91.2529L36.0225 96.4353C38.4594 95.7628 43.8437 94.5278 53.2517 93.5488ZM115.317 95.5423C107.59 94.919 97.6795 94.4505 85.3461 94.4505C73.1717 94.4505 63.6122 94.956 56.2744 95.6311L56.2744 106.717C64.1941 107.398 74.5603 107.926 87.6567 107.926C99.0666 107.926 108.178 107.482 115.317 106.871L115.317 95.5423ZM136.691 98.4537C134.775 98.0041 128.918 96.7806 118.34 95.8035L118.34 106.591C129.38 105.49 134.982 104.029 136.691 103.52L136.691 98.4537ZM53.2517 106.439L53.2517 95.9314C42.439 97.0875 37.2494 98.5598 36.0225 98.9447L36.0225 103.854C37.509 104.216 42.9834 105.43 53.2517 106.439ZM136.691 111.347L136.691 106.02C134 106.742 128.254 108.007 118.34 108.97L118.34 119.191C130.703 116.107 136.022 111.908 136.691 111.347ZM53.2517 108.82C43.9715 107.928 38.4491 106.855 36.0225 106.306L36.0225 112.243C36.0476 112.258 36.0724 112.275 36.0966 112.291C36.1606 112.335 39.9233 114.882 48.0826 117.397C49.5888 117.861 51.3106 118.343 53.2517 118.818L53.2517 108.82ZM87.6567 110.269C74.586 110.269 64.2355 109.76 56.2744 109.092L56.2744 119.509C63.9039 121.137 74.3022 122.514 87.6564 122.514C99.115 122.514 108.22 121.408 115.317 119.891L115.317 109.243C108.126 109.842 99.0177 110.269 87.6567 110.269ZM118.34 128.012C124.281 126.251 129.547 123.951 133.949 121.155C135.692 120.048 136.691 118.415 136.691 116.675L136.691 114.518C134.844 115.686 131.853 117.308 127.479 118.922C125.053 119.818 122.021 120.771 118.34 121.644L118.34 128.012ZM53.2517 121.269C50.7737 120.687 48.6131 120.086 46.7654 119.512C41.5005 117.875 37.9918 116.234 36.0225 115.181L36.0225 115.915C36.0225 117.572 36.9302 119.144 38.5126 120.228C42.5998 123.027 47.5903 125.385 53.2517 127.244L53.2517 121.269ZM87.6564 124.856C74.4709 124.856 64.0623 123.539 56.2744 121.934L56.2744 128.172C65.2856 130.749 75.7785 132.139 86.9345 132.139C97.2751 132.139 106.898 131.003 115.317 128.845L115.317 122.311C108.231 123.761 99.0917 124.856 87.6564 124.856Z" fill="#DA803C"/>
<path fill-rule="evenodd" clip-rule="evenodd" d="M135.865 78.5144C132.34 76.2759 128.299 74.34 123.828 72.7285L120.805 71.7088C111.047 68.6332 99.4865 67 86.9345 67C75.2673 67 64.2727 68.4836 54.8277 71.2333C54.397 71.2223 53.9895 71.3499 53.7024 71.569L50.6187 72.5784C45.2477 74.4569 40.4818 76.7793 36.5113 79.4983C34.2796 81.0264 32.9998 83.2382 32.9998 85.5665L32.9998 115.914C32.9998 118.243 34.2796 120.455 36.5116 121.983C48.1099 129.926 66.4883 134.481 86.9345 134.481C106.798 134.481 124.176 130.392 135.865 122.967C138.31 121.413 139.713 119.12 139.713 116.675L139.713 92.3981L139.713 90.0558L139.713 84.8061C139.713 82.3614 138.311 80.068 135.865 78.5144ZM86.9345 69.3423C97.2751 69.3423 106.898 70.478 115.317 72.6358L115.317 80.1603C107.698 78.6861 97.7506 77.5205 85.3458 77.5205C73.1364 77.5205 63.5454 78.7691 56.2744 80.3644L56.2744 73.3095C65.2859 70.732 75.7788 69.3423 86.9345 69.3423ZM136.691 84.8061L136.691 87.043C134.676 85.9877 131.254 84.4247 126.237 82.8651C124.046 82.1841 121.418 81.4665 118.34 80.786L118.34 73.4697C124.281 75.2299 129.547 77.5299 133.949 80.3262C135.691 81.433 136.691 83.0658 136.691 84.8061ZM53.2517 74.2369L53.2517 81.0788C50.1988 81.8542 47.6317 82.676 45.5231 83.4542C40.9138 85.1559 37.8394 86.8652 36.0225 88.0435L36.0225 85.5665C36.0225 83.9094 36.9302 82.3375 38.5126 81.2538C42.5998 78.4549 47.5903 76.0967 53.2517 74.2369ZM85.3458 79.8633C97.8944 79.8633 107.833 81.0784 115.317 82.5767L115.317 93.171C107.556 92.5598 97.6569 92.1081 85.3461 92.1081C73.2279 92.1081 63.6736 92.5935 56.2744 93.2567L56.2744 82.7995C63.5635 81.1236 73.1131 79.8633 85.3458 79.8633ZM124.92 84.9802C132.017 87.1679 135.788 89.3793 136.691 89.9469L136.691 96.0064C133.997 95.4119 128.108 94.3078 118.34 93.4261L118.34 83.2253C120.867 83.8051 123.058 84.4062 124.92 84.9802ZM53.2517 83.5503L53.2517 93.5488C43.8437 94.5278 38.4594 95.7628 36.0225 96.4353L36.0225 91.2529C36.0999 91.2058 36.1724 91.1521 36.2389 91.0917C36.3148 91.0226 41.1214 86.7971 53.2517 83.5503ZM85.3461 94.4505C97.6795 94.4505 107.59 94.919 115.317 95.5423L115.317 106.871C108.178 107.482 99.0666 107.926 87.6567 107.926C74.5603 107.926 64.1941 107.398 56.2744 106.717L56.2744 95.6311C63.6122 94.956 73.1717 94.4505 85.3461 94.4505ZM118.34 95.8035C128.918 96.7806 134.775 98.0041 136.691 98.4537L136.691 103.52C134.982 104.029 129.38 105.49 118.34 106.591L118.34 95.8035ZM53.2517 95.9314L53.2517 106.439C42.9834 105.43 37.509 104.216 36.0225 103.854L36.0225 98.9447C37.2494 98.5598 42.439 97.0875 53.2517 95.9314ZM136.691 106.02L136.691 111.347C136.022 111.908 130.703 116.107 118.34 119.191L118.34 108.97C128.254 108.007 134 106.742 136.691 106.02ZM36.0225 106.306C38.4491 106.855 43.9715 107.928 53.2517 108.82L53.2517 118.818C51.3106 118.343 49.5888 117.861 48.0826 117.397C39.9233 114.882 36.1606 112.335 36.0966 112.291C36.0724 112.275 36.0476 112.258 36.0225 112.243L36.0225 106.306ZM56.2744 109.092C64.2355 109.76 74.586 110.269 87.6567 110.269C99.0177 110.269 108.126 109.842 115.317 109.243L115.317 119.891C108.22 121.408 99.115 122.514 87.6564 122.514C74.3022 122.514 63.9039 121.137 56.2744 119.509L56.2744 109.092ZM133.949 121.155C129.547 123.951 124.281 126.251 118.34 128.012L118.34 121.644C122.021 120.771 125.053 119.818 127.479 118.922C131.853 117.308 134.844 115.686 136.691 114.518L136.691 116.675C136.691 118.415 135.692 120.048 133.949 121.155ZM46.7654 119.512C48.6131 120.086 50.7737 120.687 53.2517 121.269L53.2517 127.244C47.5903 125.385 42.5998 123.027 38.5126 120.228C36.9302 119.144 36.0225 117.572 36.0225 115.915L36.0225 115.181C37.9918 116.234 41.5005 117.875 46.7654 119.512ZM56.2744 121.934C64.0623 123.539 74.4709 124.856 87.6564 124.856C99.0917 124.856 108.231 123.761 115.317 122.311L115.317 128.845C106.898 131.003 97.2751 132.139 86.9345 132.139C75.7785 132.139 65.2856 130.749 56.2744 128.172L56.2744 121.934Z" fill="#DA803C"/>
<path d="M53.6413 71.5877L53.4946 71.1096L53.4856 71.1126L53.6413 71.5877ZM53.7024 71.569L53.8491 72.0469L53.5573 71.0905L53.7024 71.569ZM115.317 72.6358L115.817 72.6358L115.817 72.2477L115.441 72.1514L115.317 72.6358ZM56.2744 73.3095L56.1369 72.8288L55.7744 72.9324L55.7744 73.3095L56.2744 73.3095ZM56.2744 80.3644L55.7744 80.3644L55.7744 80.986L56.3815 80.8528L56.2744 80.3644ZM115.317 80.1603L115.222 80.6512L115.817 80.7663L115.817 80.1603L115.317 80.1603ZM136.691 87.043L136.459 87.486L137.191 87.8693L137.191 87.043L136.691 87.043ZM133.949 80.3262L134.217 79.9041L134.217 79.9041L133.949 80.3262ZM118.34 73.4697L118.482 72.9903L117.84 72.8001L117.84 73.4697L118.34 73.4697ZM118.34 80.786L117.84 80.786L117.84 81.1876L118.232 81.2742L118.34 80.786ZM126.237 82.8651L126.385 82.3876L126.385 82.3876L126.237 82.8651ZM53.2517 81.0788L53.3748 81.5635L53.7517 81.4677L53.7517 81.0788L53.2517 81.0788ZM53.2517 74.2369L53.7517 74.2369L53.7517 73.5464L53.0957 73.7619L53.2517 74.2369ZM38.5126 81.2538L38.2301 80.8413L38.2301 80.8413L38.5126 81.2538ZM36.0225 88.0435L35.5225 88.0435L35.5225 88.9637L36.2946 88.4631L36.0225 88.0435ZM45.5231 83.4542L45.3499 82.9851L45.3499 82.9852L45.5231 83.4542ZM115.317 82.5767L115.817 82.5767L115.817 82.1669L115.415 82.0864L115.317 82.5767ZM56.2744 82.7995L56.1623 82.3122L55.7744 82.4014L55.7744 82.7995L56.2744 82.7995ZM56.2744 93.2567L55.7744 93.2567L55.7744 93.8035L56.319 93.7547L56.2744 93.2567ZM115.317 93.171L115.278 93.6694L115.817 93.7119L115.817 93.171L115.317 93.171ZM136.691 89.9469L137.191 89.9469L137.191 89.6705L136.957 89.5235L136.691 89.9469ZM124.92 84.9802L124.772 85.458L124.772 85.458L124.92 84.9802ZM118.34 83.2253L118.452 82.738L117.84 82.5977L117.84 83.2253L118.34 83.2253ZM118.34 93.4261L117.84 93.4261L117.84 93.883L118.295 93.924L118.34 93.4261ZM136.691 96.0064L136.583 96.4947L137.191 96.6288L137.191 96.0064L136.691 96.0064ZM53.2517 93.5488L53.3035 94.0461L53.7517 93.9995L53.7517 93.5488L53.2517 93.5488ZM53.2517 83.5503L53.7517 83.5503L53.7517 82.8988L53.1224 83.0673L53.2517 83.5503ZM36.2389 91.0917L36.5752 91.4617L36.5756 91.4613L36.2389 91.0917ZM36.0225 91.2529L35.7626 90.8257L35.5225 90.9718L35.5225 91.2529L36.0225 91.2529ZM36.0225 96.4353L35.5225 96.4353L35.5225 97.092L36.1555 96.9173L36.0225 96.4353ZM115.317 95.5423L115.817 95.5423L115.817 95.081L115.357 95.044L115.317 95.5423ZM56.2744 95.6311L56.2286 95.1332L55.7744 95.175L55.7744 95.6311L56.2744 95.6311ZM56.2744 106.717L55.7744 106.717L55.7744 107.175L56.2315 107.215L56.2744 106.717ZM115.317 106.871L115.36 107.369L115.817 107.33L115.817 106.871L115.317 106.871ZM136.691 98.4537L137.191 98.4537L137.191 98.0574L136.805 97.9669L136.691 98.4537ZM118.34 95.8035L118.386 95.3057L117.84 95.2552L117.84 95.8035L118.34 95.8035ZM118.34 106.591L117.84 106.591L117.84 107.143L118.389 107.088L118.34 106.591ZM136.691 103.52L136.834 103.999L137.191 103.893L137.191 103.52L136.691 103.52ZM53.2517 106.439L53.2028 106.936L53.7517 106.99L53.7517 106.439L53.2517 106.439ZM53.2517 95.9314L53.7517 95.9314L53.7517 95.3751L53.1986 95.4343L53.2517 95.9314ZM36.0225 98.9447L35.8728 98.4676L35.5225 98.5775L35.5225 98.9447L36.0225 98.9447ZM36.0225 103.854L35.5225 103.854L35.5225 104.247L35.9041 104.34L36.0225 103.854ZM136.691 111.347L137.012 111.73L137.191 111.58L137.191 111.347L136.691 111.347ZM136.691 106.02L137.191 106.02L137.191 105.368L136.561 105.537L136.691 106.02ZM118.34 108.97L118.291 108.472L117.84 108.516L117.84 108.97L118.34 108.97ZM118.34 119.191L117.84 119.191L117.84 119.831L118.461 119.676L118.34 119.191ZM53.2517 108.82L53.7517 108.82L53.7517 108.365L53.2995 108.322L53.2517 108.82ZM36.0225 106.306L36.1328 105.818L35.5225 105.68L35.5225 106.306L36.0225 106.306ZM36.0225 112.243L35.5225 112.243L35.5225 112.525L35.7631 112.671L36.0225 112.243ZM36.0966 112.291L35.8132 112.703L35.8134 112.703L36.0966 112.291ZM48.0826 117.397L48.2299 116.919L48.2299 116.919L48.0826 117.397ZM53.2517 118.818L53.133 119.303L53.7517 119.455L53.7517 118.818L53.2517 118.818ZM56.2744 109.092L56.3162 108.593L55.7744 108.548L55.7744 109.092L56.2744 109.092ZM56.2744 119.509L55.7744 119.509L55.7744 119.913L56.17 119.998L56.2744 119.509ZM115.317 119.891L115.422 120.379L115.817 120.295L115.817 119.891L115.317 119.891ZM115.317 109.243L115.817 109.243L115.817 108.699L115.276 108.744L115.317 109.243ZM118.34 128.012L117.84 128.012L117.84 128.681L118.482 128.491L118.34 128.012ZM133.949 121.155L133.681 120.733L133.681 120.733L133.949 121.155ZM136.691 114.518L137.191 114.518L137.191 113.61L136.424 114.096L136.691 114.518ZM127.479 118.922L127.652 119.391L127.652 119.391L127.479 118.922ZM118.34 121.644L118.224 121.158L117.84 121.249L117.84 121.644L118.34 121.644ZM53.2517 121.269L53.7517 121.269L53.7517 120.873L53.3661 120.782L53.2517 121.269ZM46.7654 119.512L46.9138 119.034L46.9138 119.034L46.7654 119.512ZM36.0225 115.181L36.2583 114.74L35.5225 114.347L35.5225 115.181L36.0225 115.181ZM38.5126 120.228L38.23 120.64L38.2301 120.64L38.5126 120.228ZM53.2517 127.244L53.0957 127.719L53.7517 127.935L53.7517 127.244L53.2517 127.244ZM56.2744 121.934L56.3753 121.445L55.7744 121.321L55.7744 121.934L56.2744 121.934ZM56.2744 128.172L55.7744 128.172L55.7744 128.549L56.1369 128.652L56.2744 128.172ZM115.317 128.845L115.441 129.33L115.817 129.233L115.817 128.845L115.317 128.845ZM115.317 122.311L115.817 122.311L115.817 121.698L115.217 121.821L115.317 122.311ZM53.7864 72.0662C53.7983 72.0626 53.8095 72.0591 53.8194 72.0561C53.8297 72.0529 53.8385 72.0502 53.8475 72.0474L53.5573 71.0905C53.5454 71.0941 53.5342 71.0975 53.5243 71.1006C53.5141 71.1038 53.5052 71.1065 53.4962 71.1092L53.7864 72.0662ZM115.441 72.1514C106.975 69.9818 97.3104 68.8423 86.9345 68.8423L86.9345 69.8423C97.2398 69.8423 106.82 70.9743 115.193 73.1201L115.441 72.1514ZM86.9345 68.8423C75.7391 68.8423 65.1992 70.2367 56.1369 72.8288L56.4119 73.7902C65.3725 71.2272 75.8184 69.8423 86.9345 69.8423L86.9345 68.8423ZM55.7744 73.3095L55.7744 80.3644L56.7744 80.3644L56.7744 73.3095L55.7744 73.3095ZM56.3815 80.8528C63.6157 79.2655 73.1707 78.0205 85.3458 78.0205L85.3458 77.0205C73.102 77.0205 63.4751 78.2726 56.1672 79.876L56.3815 80.8528ZM85.3458 78.0205C97.719 78.0205 107.634 79.1832 115.222 80.6512L115.412 79.6694C107.761 78.1891 97.7821 77.0205 85.3458 77.0205L85.3458 78.0205ZM115.817 80.1603L115.817 72.6358L114.817 72.6358L114.817 80.1603L115.817 80.1603ZM137.191 87.043L137.191 84.8061L136.191 84.8061L136.191 87.043L137.191 87.043ZM137.191 84.8061C137.191 82.8606 136.073 81.0828 134.217 79.9041L133.681 80.7482C135.31 81.7832 136.191 83.271 136.191 84.8061L137.191 84.8061ZM134.217 79.9041C129.769 77.0783 124.459 74.761 118.482 72.9903L118.198 73.9491C124.104 75.6989 129.326 77.9815 133.681 80.7482L134.217 79.9041ZM117.84 73.4697L117.84 80.786L118.84 80.786L118.84 73.4697L117.84 73.4697ZM118.232 81.2742C121.296 81.9517 123.911 82.6656 126.088 83.3425L126.385 82.3876C124.181 81.7025 121.539 80.9814 118.448 80.2978L118.232 81.2742ZM126.088 83.3425C131.076 84.8932 134.471 86.4445 136.459 87.486L136.923 86.6001C134.882 85.5309 131.431 83.9563 126.385 82.3876L126.088 83.3425ZM53.7517 81.0788L53.7517 74.2369L52.7517 74.2369L52.7517 81.0788L53.7517 81.0788ZM53.0957 73.7619C47.3996 75.633 42.3644 78.0102 38.2301 80.8413L38.7951 81.6664C42.8353 78.8997 47.7809 76.5603 53.4078 74.7119L53.0957 73.7619ZM38.2301 80.8413C36.5364 82.0012 35.5225 83.7165 35.5225 85.5665L36.5225 85.5665C36.5225 84.1023 37.324 82.6738 38.7951 81.6664L38.2301 80.8413ZM35.5225 85.5665L35.5225 88.0435L36.5225 88.0435L36.5225 85.5665L35.5225 85.5665ZM36.2946 88.4631C38.0804 87.3049 41.1216 85.6121 45.6962 83.9233L45.3499 82.9852C40.706 84.6996 37.5985 86.4256 35.7504 87.624L36.2946 88.4631ZM45.6962 83.9233C47.7884 83.1512 50.3388 82.3346 53.3748 81.5635L53.1286 80.5942C50.0588 81.3739 47.475 82.2009 45.3499 82.9851L45.6962 83.9233ZM115.415 82.0864C107.899 80.5815 97.9269 79.3633 85.3458 79.3633L85.3458 80.3633C97.8619 80.3633 107.768 81.5752 115.219 83.067L115.415 82.0864ZM85.3458 79.3633C73.0786 79.3633 63.4913 80.6272 56.1623 82.3122L56.3864 83.2868C63.6358 81.62 73.1475 80.3633 85.3458 80.3633L85.3458 79.3633ZM55.7744 82.7995L55.7744 93.2567L56.7744 93.2567L56.7744 82.7995L55.7744 82.7995ZM56.319 93.7547C63.7018 93.093 73.2412 92.6081 85.3461 92.6081L85.3461 91.6081C73.2147 91.6081 63.6453 92.094 56.2297 92.7587L56.319 93.7547ZM85.3461 92.6081C97.6447 92.6081 107.531 93.0593 115.278 93.6694L115.356 92.6725C107.582 92.0602 97.6691 91.6081 85.3461 91.6081L85.3461 92.6081ZM115.817 93.171L115.817 82.5767L114.817 82.5767L114.817 93.171L115.817 93.171ZM136.957 89.5235C136.018 88.9336 132.208 86.7035 125.067 84.5023L124.772 85.458C131.826 87.6323 135.557 89.8249 136.425 90.3703L136.957 89.5235ZM125.067 84.5024C123.194 83.9248 120.991 83.3206 118.452 82.738L118.228 83.7127C120.743 84.2897 122.922 84.8876 124.772 85.458L125.067 84.5024ZM117.84 83.2253L117.84 93.4261L118.84 93.4261L118.84 83.2253L117.84 83.2253ZM118.295 93.924C128.044 94.804 133.912 95.9051 136.583 96.4947L136.799 95.5182C134.082 94.9186 128.172 93.8116 118.385 92.9281L118.295 93.924ZM137.191 96.0064L137.191 89.9469L136.191 89.9469L136.191 96.0064L137.191 96.0064ZM53.7517 93.5488L53.7517 83.5503L52.7517 83.5503L52.7517 93.5488L53.7517 93.5488ZM53.1224 83.0673C40.9187 86.3337 36.04 90.5966 35.9022 90.7221L36.5756 91.4613C36.5739 91.4629 36.6479 91.397 36.8045 91.2731C36.9593 91.1505 37.193 90.9728 37.5105 90.7501C38.1455 90.3046 39.1159 89.6788 40.4622 88.9527C43.1547 87.5007 47.3526 85.6468 53.381 84.0333L53.1224 83.0673ZM35.9026 90.7217C35.8611 90.7594 35.8144 90.7942 35.7626 90.8257L36.2824 91.68C36.3853 91.6174 36.4837 91.5449 36.5752 91.4617L35.9026 90.7217ZM35.5225 91.2529L35.5225 96.4353L36.5225 96.4353L36.5225 91.2529L35.5225 91.2529ZM36.1555 96.9173C38.5619 96.2532 43.9186 95.0227 53.3035 94.0461L53.2 93.0515C43.7687 94.0329 38.3568 95.2724 35.8895 95.9534L36.1555 96.9173ZM115.357 95.044C107.616 94.4195 97.6922 93.9505 85.3461 93.9505L85.3461 94.9505C97.6669 94.9505 107.564 95.4185 115.277 96.0407L115.357 95.044ZM85.3461 93.9505C73.158 93.9505 63.5831 94.4566 56.2286 95.1332L56.3202 96.129C63.6413 95.4554 73.1855 94.9505 85.3461 94.9505L85.3461 93.9505ZM55.7744 95.6311L55.7744 106.717L56.7744 106.717L56.7744 95.6311L55.7744 95.6311ZM56.2315 107.215C64.1663 107.897 74.5469 108.426 87.6567 108.426L87.6567 107.426C74.5738 107.426 64.2218 106.898 56.3172 106.218L56.2315 107.215ZM87.6567 108.426C99.0795 108.426 108.205 107.982 115.36 107.369L115.274 106.372C108.15 106.983 99.0537 107.426 87.6567 107.426L87.6567 108.426ZM115.817 106.871L115.817 95.5423L114.817 95.5423L114.817 106.871L115.817 106.871ZM136.805 97.9669C134.865 97.5117 128.985 96.2847 118.386 95.3057L118.294 96.3014C128.851 97.2765 134.685 98.4966 136.577 98.9405L136.805 97.9669ZM117.84 95.8035L117.84 106.591L118.84 106.591L118.84 95.8035L117.84 95.8035ZM118.389 107.088C129.456 105.984 135.09 104.518 136.834 103.999L136.548 103.041C134.875 103.539 129.304 104.995 118.29 106.093L118.389 107.088ZM137.191 103.52L137.191 98.4537L136.191 98.4537L136.191 103.52L137.191 103.52ZM53.7517 106.439L53.7517 95.9314L52.7517 95.9314L52.7517 106.439L53.7517 106.439ZM53.1986 95.4343C42.3585 96.5933 37.1359 98.0714 35.8728 98.4676L36.1722 99.4218C37.3629 99.0482 42.5195 97.5817 53.3049 96.4286L53.1986 95.4343ZM35.5225 98.9447L35.5225 103.854L36.5225 103.854L36.5225 98.9447L35.5225 98.9447ZM35.9041 104.34C37.4153 104.708 42.913 105.925 53.2028 106.936L53.3006 105.941C43.0538 104.934 37.6028 103.724 36.1409 103.368L35.9041 104.34ZM137.191 111.347L137.191 106.02L136.191 106.02L136.191 111.347L137.191 111.347ZM136.561 105.537C133.901 106.251 128.182 107.512 118.291 108.472L118.388 109.468C128.325 108.503 134.099 107.233 136.821 106.503L136.561 105.537ZM117.84 108.97L117.84 119.191L118.84 119.191L118.84 108.97L117.84 108.97ZM118.461 119.676C130.897 116.574 136.285 112.34 137.012 111.73L136.37 110.964C135.759 111.476 130.508 115.64 118.219 118.706L118.461 119.676ZM53.2995 108.322C44.0385 107.432 38.5371 106.362 36.1328 105.818L35.9122 106.794C38.3611 107.347 43.9045 108.424 53.2039 109.317L53.2995 108.322ZM35.5225 106.306L35.5225 112.243L36.5225 112.243L36.5225 106.306L35.5225 106.306ZM35.7631 112.671C35.779 112.68 35.7958 112.691 35.8132 112.703L36.3799 111.879C36.349 111.858 36.3162 111.837 36.2819 111.816L35.7631 112.671ZM35.8134 112.703C35.9182 112.775 39.7265 115.344 47.9354 117.875L48.2299 116.919C44.1751 115.669 41.2184 114.413 39.2724 113.468C38.2994 112.995 37.5789 112.6 37.1002 112.322C36.8608 112.183 36.6818 112.073 36.5619 111.997C36.502 111.959 36.4568 111.93 36.4263 111.91C36.411 111.9 36.3994 111.892 36.3914 111.887C36.3832 111.882 36.3794 111.879 36.3798 111.879L35.8134 112.703ZM47.9354 117.875C49.4509 118.342 51.1822 118.827 53.133 119.303L53.3704 118.332C51.4389 117.86 49.7267 117.38 48.2299 116.919L47.9354 117.875ZM53.7517 118.818L53.7517 108.82L52.7517 108.82L52.7517 118.818L53.7517 118.818ZM87.6567 109.769C74.599 109.769 64.2624 109.261 56.3162 108.593L56.2325 109.59C64.2085 110.26 74.5731 110.769 87.6567 110.769L87.6567 109.769ZM55.7744 109.092L55.7744 119.509L56.7744 119.509L56.7744 109.092L55.7744 109.092ZM56.17 119.998C63.8343 121.634 74.2676 123.014 87.6564 123.014L87.6564 122.014C74.3368 122.014 63.9735 120.641 56.3788 119.02L56.17 119.998ZM87.6564 123.014C99.1472 123.014 108.287 121.905 115.422 120.379L115.213 119.402C108.152 120.911 99.0827 122.014 87.6564 122.014L87.6564 123.014ZM115.817 119.891L115.817 109.243L114.817 109.243L114.817 119.891L115.817 119.891ZM115.276 108.744C108.099 109.342 99.0052 109.769 87.6567 109.769L87.6567 110.769C99.0301 110.769 108.152 110.341 115.359 109.741L115.276 108.744ZM118.482 128.491C124.458 126.72 129.769 124.403 134.217 121.577L133.681 120.733C129.326 123.5 124.104 125.782 118.198 127.532L118.482 128.491ZM134.217 121.577C136.073 120.398 137.191 118.621 137.191 116.675L136.191 116.675C136.191 118.21 135.311 119.698 133.681 120.733L134.217 121.577ZM137.191 116.675L137.191 114.518L136.191 114.518L136.191 116.675L137.191 116.675ZM136.424 114.096C134.607 115.245 131.647 116.851 127.306 118.453L127.652 119.391C132.059 117.765 135.082 116.128 136.958 114.941L136.424 114.096ZM127.306 118.453C124.899 119.342 121.886 120.289 118.224 121.158L118.455 122.131C122.156 121.252 125.207 120.294 127.652 119.391L127.306 118.453ZM117.84 121.644L117.84 128.012L118.84 128.012L118.84 121.644L117.84 121.644ZM53.3661 120.782C50.8997 120.203 48.7504 119.605 46.9138 119.034L46.6169 119.989C48.4758 120.567 50.6478 121.171 53.1374 121.756L53.3661 120.782ZM46.9138 119.034C41.6794 117.407 38.2 115.779 36.2583 114.74L35.7867 115.622C37.7836 116.69 41.3215 118.343 46.6169 119.989L46.9138 119.034ZM35.5225 115.181L35.5225 115.915L36.5225 115.915L36.5225 115.181L35.5225 115.181ZM35.5225 115.915C35.5225 117.765 36.5364 119.48 38.23 120.64L38.7951 119.815C37.324 118.807 36.5225 117.379 36.5225 115.915L35.5225 115.915ZM38.2301 120.64C42.3644 123.471 47.3997 125.848 53.0957 127.719L53.4078 126.769C47.7809 124.921 42.8353 122.582 38.7951 119.815L38.2301 120.64ZM53.7517 127.244L53.7517 121.269L52.7517 121.269L52.7517 127.244L53.7517 127.244ZM87.6564 124.356C74.5044 124.356 64.1297 123.043 56.3753 121.445L56.1735 122.424C63.9949 124.036 74.4373 125.356 87.6564 125.356L87.6564 124.356ZM55.7744 121.934L55.7744 128.172L56.7744 128.172L56.7744 121.934L55.7744 121.934ZM56.1369 128.652C65.1989 131.245 75.7388 132.639 86.9345 132.639L86.9345 131.639C75.8181 131.639 65.3722 130.254 56.4119 127.691L56.1369 128.652ZM86.9345 132.639C97.3104 132.639 106.975 131.499 115.441 129.33L115.193 128.361C106.82 130.507 97.2398 131.639 86.9345 131.639L86.9345 132.639ZM115.817 128.845L115.817 122.311L114.817 122.311L114.817 128.845L115.817 128.845ZM115.217 121.821C108.165 123.264 99.0596 124.356 87.6564 124.356L87.6564 125.356C99.1238 125.356 108.297 124.258 115.417 122.801L115.217 121.821ZM50.7744 73.0535L53.7971 72.0628L53.4856 71.1126L50.4629 72.1032L50.7744 73.0535ZM53.7881 72.0657L53.8491 72.0469L53.5557 71.091L53.4946 71.1097L53.7881 72.0657ZM123.828 72.7285L124.167 71.7878L124.157 71.7843L124.147 71.781L123.828 72.7285ZM135.865 78.5144L136.401 77.6703L136.401 77.6703L135.865 78.5144ZM139.713 90.0558L140.713 90.0559L140.713 90.0558L139.713 90.0558ZM139.713 92.3981L138.713 92.398L138.713 92.3981L139.713 92.3981ZM135.865 122.967L135.329 122.123L135.329 122.123L135.865 122.967ZM36.5116 121.983L37.0766 121.158L37.0766 121.158L36.5116 121.983ZM36.5113 79.4983L37.0762 80.3234L37.0763 80.3234L36.5113 79.4983ZM50.6187 72.5784L50.3076 71.628L50.298 71.6311L50.2885 71.6344L50.6187 72.5784ZM53.7024 71.569L54.0135 72.5193L54.1743 72.4667L54.3089 72.3641L53.7024 71.569ZM54.8277 71.2333L54.8022 72.2329L54.9578 72.2369L55.1073 72.1934L54.8277 71.2333ZM120.805 71.7088L121.125 70.7613L121.116 70.7581L121.106 70.755L120.805 71.7088ZM123.489 73.6693C127.901 75.2597 131.875 77.165 135.329 79.3586L136.401 77.6703C132.806 75.3867 128.696 73.4202 124.167 71.7878L123.489 73.6693ZM135.329 79.3585C137.548 80.7681 138.713 82.7713 138.713 84.8061L140.713 84.8061C140.713 81.9515 139.074 79.3679 136.401 77.6703L135.329 79.3585ZM138.713 84.8061L138.713 90.0558L140.713 90.0558L140.713 84.8061L138.713 84.8061ZM138.713 92.3981L138.713 116.675L140.713 116.675L140.713 92.3981L138.713 92.3981ZM138.713 116.675C138.713 118.71 137.547 120.713 135.329 122.123L136.401 123.811C139.073 122.114 140.713 119.53 140.713 116.675L138.713 116.675ZM135.329 122.123C123.855 129.411 106.687 133.481 86.9345 133.481L86.9345 135.481C106.91 135.481 124.497 131.373 136.401 123.811L135.329 122.123ZM86.9345 133.481C66.6027 133.481 48.4487 128.946 37.0766 121.158L35.9465 122.808C47.771 130.906 66.3739 135.481 86.9345 135.481L86.9345 133.481ZM37.0766 121.158C35.0661 119.781 33.9998 117.856 33.9998 115.914L31.9998 115.914C31.9998 118.63 33.4932 121.128 35.9466 122.808L37.0766 121.158ZM33.9998 115.914L33.9998 85.5665L31.9998 85.5665L31.9998 115.914L33.9998 115.914ZM33.9998 85.5665C33.9998 83.6253 35.0661 81.6998 37.0762 80.3234L35.9463 78.6732C33.4932 80.3529 31.9998 82.8511 31.9998 85.5665L33.9998 85.5665ZM37.0763 80.3234C40.9604 77.6636 45.6436 75.3778 50.9488 73.5223L50.2885 71.6344C44.8518 73.536 40.0033 75.895 35.9463 78.6732L37.0763 80.3234ZM54.3089 72.3641C54.3935 72.2995 54.571 72.227 54.8022 72.2329L54.8533 70.2336C54.223 70.2175 53.5856 70.4004 53.0959 70.7739L54.3089 72.3641ZM55.1073 72.1934C64.4492 69.4737 75.3483 68 86.9345 68L86.9345 66C75.1864 66 64.0962 67.4934 54.5482 70.2731L55.1073 72.1934ZM86.9345 68C99.4042 68 110.86 69.623 120.505 72.6626L121.106 70.755C111.233 67.6434 99.5688 66 86.9345 66L86.9345 68ZM138.713 90.0557L138.713 92.398L140.713 92.3983L140.713 90.0559L138.713 90.0557ZM50.9298 73.5288L54.0135 72.5193L53.3913 70.6186L50.3076 71.628L50.9298 73.5288ZM124.147 71.781L121.125 70.7613L120.486 72.6563L123.508 73.676L124.147 71.781Z" fill="#AA330F" mask="url(#path-1-inside-1)"/>
<path d="M44.141 28.7324C44.7819 30.61 44.8408 32.4666 44.3176 34.3019C43.7841 36.1071 42.7893 37.7991 41.3333 39.3781C42.7529 39.7727 43.9922 40.4317 45.0512 41.3551C46.1303 42.2379 46.9023 43.3606 47.3675 44.7235C47.9257 46.3588 47.979 48.1496 47.5274 50.0958C47.0959 52.0014 46.2743 53.8541 45.0627 55.6539C43.8408 57.4235 42.3143 59.0434 40.4831 60.5138C38.6518 61.9841 36.646 63.0914 34.4655 63.8357C32.1033 64.6419 29.8738 64.8957 27.7769 64.5971C25.7206 64.3183 23.9137 63.5319 22.3561 62.2376C22.3489 61.2257 22.3601 59.9708 22.3898 58.4729C22.4395 56.9344 22.514 55.3198 22.6132 53.6291C22.702 51.9081 22.796 50.2023 22.8952 48.5116C23.0247 46.8106 23.1604 45.2765 23.3024 43.9094C23.5746 40.9424 23.8755 38.4559 24.2052 36.4499C24.5349 34.4438 24.9077 32.8119 25.3237 31.5541C23.8338 32.6375 22.5212 33.7448 21.3858 34.8763C20.24 35.9774 19.4525 36.9393 19.0233 37.7621C18.6887 37.6734 18.308 37.499 17.8811 37.239C17.4845 36.9686 17.0776 36.6679 16.6603 36.337C16.263 35.9654 15.8959 35.5835 15.5592 35.1913C15.2527 34.7887 15.0223 34.4108 14.868 34.0578C15.4693 33.2439 16.3081 32.3828 17.3844 31.4744C18.4806 30.5254 19.7087 29.616 21.0686 28.7461C22.4285 27.8762 23.8445 27.0716 25.3166 26.3325C26.8191 25.583 28.282 24.9653 29.7054 24.4795C33.3395 23.2391 36.4343 22.9942 38.9898 23.745C41.5453 24.4957 43.2624 26.1582 44.141 28.7324ZM30.5392 45.4969C29.8707 45.4207 29.2012 45.1927 28.5306 44.813C28.3612 46.5953 28.2118 48.3369 28.0823 50.0379C27.9831 51.7286 27.9083 53.2926 27.8579 54.7299C27.8075 56.1673 27.7911 57.407 27.8087 58.4492C27.8263 59.4914 27.8923 60.2297 28.0067 60.664C28.5134 60.7615 29.0751 60.7727 29.6919 60.6974C30.3389 60.6118 31.1016 60.4192 31.9798 60.1194C34.0392 59.4165 35.9094 58.4569 37.5907 57.2406C39.2719 56.0243 40.6589 54.6887 41.7514 53.2338C42.8337 51.7486 43.5817 50.2253 43.9956 48.6639C44.4094 47.1025 44.3786 45.6253 43.9031 44.2322C43.2208 42.2334 41.8667 41.0895 39.8408 40.8004C37.8093 42.5758 35.3097 43.97 32.3418 44.983C31.9178 45.1277 31.5847 45.2414 31.3424 45.3241C31.1304 45.3965 30.8627 45.4541 30.5392 45.4969ZM33.9717 26.7258C33.3357 26.9428 32.6698 27.2208 31.974 27.5598C31.2981 27.8581 30.5923 28.2173 29.8566 28.6375C30.0191 28.7173 30.1565 28.8226 30.2687 28.9533C30.4009 29.0435 30.5231 29.1539 30.6354 29.2846C30.4869 29.7411 30.3346 30.3848 30.1787 31.2157C30.0227 32.0466 29.8627 33.0142 29.6986 34.1184C29.5241 35.1923 29.3556 36.3826 29.1929 37.6892C29.0605 38.9854 28.9234 40.3171 28.7814 41.6843C29.2549 41.3874 29.8447 41.0846 30.5508 40.776C31.2769 40.4267 32.0034 40.128 32.7302 39.88C33.1239 39.7456 33.5077 39.6315 33.8814 39.5378C34.2854 39.4337 34.6795 39.3499 35.0636 39.2864C36.4346 38.548 37.6179 37.7552 38.6137 36.9082C39.6294 36.0205 40.4579 35.1291 41.0991 34.234C41.73 33.3086 42.1434 32.3898 42.3392 31.4776C42.5351 30.5654 42.4883 29.6854 42.1988 28.8374C41.7027 27.3838 40.7551 26.4899 39.3563 26.1559C37.947 25.7916 36.1522 25.9815 33.9717 26.7258Z" fill="black"/>
<path d="M63.1063 33.771C63.4211 33.7132 63.7946 33.7096 64.2269 33.7603C64.6848 33.7737 65.1043 33.843 65.4852 33.9682C65.8603 34.062 66.1754 34.183 66.4304 34.3313C66.7169 34.4739 66.8746 34.6239 66.9035 34.7812C66.517 36.2188 66.1806 37.6634 65.8943 39.1151C65.6023 40.5353 65.3802 41.8938 65.2281 43.1906C65.076 44.4875 64.9882 45.6912 64.9646 46.8018C64.9724 47.9066 65.0486 48.8524 65.1933 49.6392C65.3552 50.5204 65.5856 51.2427 65.8843 51.806C66.1773 52.3378 66.5672 52.6891 67.0541 52.8598C66.7227 53.181 66.2725 53.4753 65.7034 53.7426C65.1344 54.0098 64.6138 54.1869 64.1417 54.2736C62.4422 54.586 61.3784 53.5777 60.9503 51.2487C60.6206 49.4548 60.7674 46.89 61.3906 43.5543C61.0273 45.1178 60.555 46.6199 59.9739 48.0607C59.387 49.47 58.7583 50.7406 58.0879 51.8724C57.4175 53.0043 56.6995 53.9659 55.9339 54.7573C55.1941 55.5115 54.4738 56.0181 53.7731 56.277C52.597 56.4281 51.5516 56.0509 50.6368 55.1453C49.7162 54.2083 49.1056 52.9215 48.8048 51.2849C48.4808 49.5224 48.5172 47.5961 48.9139 45.506C49.3106 43.4158 49.9379 41.4297 50.7958 39.5476C51.6851 37.6597 52.721 36.0377 53.9033 34.6817C55.0799 33.2941 56.3076 32.4503 57.5864 32.1502C57.9185 32.1867 58.2994 32.3119 58.7291 32.5258C59.1903 32.7338 59.6287 32.9949 60.0444 33.3089C60.4914 33.6172 60.8785 33.9527 61.2055 34.3156C61.5267 34.647 61.729 34.9514 61.8126 35.2289C60.5884 35.6491 59.395 36.5029 58.2326 37.7903C57.1017 39.0718 56.1213 40.5535 55.2917 42.2351C54.4877 43.8796 53.8928 45.5994 53.507 47.3948C53.1212 49.1901 53.0613 50.8116 53.3274 52.2594C53.4373 52.8574 53.7271 53.1945 54.1966 53.2709C55.0746 52.9143 55.9872 51.9495 56.9344 50.3763C57.8759 48.7717 58.9332 46.3812 60.1063 43.2048C60.3169 42.5804 60.5474 41.8873 60.7978 41.1255C61.0797 40.3579 61.3558 39.5588 61.6261 38.7283C61.8964 37.8977 62.151 37.0701 62.3898 36.2453C62.6543 35.3833 62.8932 34.5585 63.1063 33.771Z" fill="black"/>
<path d="M70.0141 51.8789C70.1116 50.9423 70.3014 49.7108 70.5838 48.1845C70.8959 46.624 71.2665 44.9795 71.6956 43.2508C72.1225 41.4903 72.5814 39.7275 73.0722 37.9627C73.563 36.1978 74.0496 34.6096 74.5321 33.1981C74.8806 32.1804 75.1963 31.3895 75.4791 30.8253C75.7598 30.2291 76.0789 29.7266 76.4362 29.3177C76.8875 29.3515 77.358 29.4322 77.8476 29.5596C78.3373 29.6871 78.8131 29.8476 79.2751 30.041C79.7371 30.2345 80.1523 30.4472 80.5207 30.679C80.8869 30.8789 81.1733 31.0841 81.3799 31.2948C80.5865 32.3744 79.8985 33.5912 79.316 34.9453C78.7653 36.2973 78.2234 38.0175 77.6902 40.1059C79.3114 38.4575 80.7293 36.887 81.944 35.3942C83.1906 33.8993 84.3306 32.2511 85.3642 30.4498C85.5451 30.2773 85.8749 30.1749 86.3539 30.1428C86.8009 30.1127 87.2372 30.1636 87.663 30.2954C88.0867 30.3952 88.3869 30.5674 88.5637 30.8121C88.092 32.3833 87.9065 33.9192 88.0073 35.4198C88.1017 36.8246 88.38 37.8643 88.8423 38.5388C88.8232 38.7326 88.6244 39.1147 88.2458 39.6854C87.8991 40.2539 87.5024 40.7937 87.0557 41.3048C86.1636 40.9158 85.3565 40.3606 84.6346 39.6394C83.9105 38.8862 83.3577 38.0574 82.9762 37.1529C81.5463 38.3074 80.3389 39.4309 79.354 40.5233C78.3668 41.5839 77.5319 42.7625 76.8493 44.0592C76.1965 45.3218 75.6523 46.7695 75.2168 48.4024C74.8132 50.0331 74.4459 51.9661 74.115 54.2013C73.8255 54.1887 73.4668 54.1005 73.0389 53.9368C72.645 53.8029 72.232 53.6222 71.7998 53.3947C71.3995 53.165 71.03 52.9172 70.6914 52.6513C70.3528 52.3854 70.1271 52.1279 70.0141 51.8789Z" fill="black"/>
<path d="M88.8997 51.1409C89.0977 50.2203 89.4195 49.0165 89.8649 47.5295C90.3437 46.0119 90.8897 44.417 91.503 42.7448C92.1176 41.0406 92.7641 39.3378 93.4426 37.6362C94.1211 35.9347 94.7764 34.4083 95.4085 33.0571C95.8649 32.0831 96.2642 31.3309 96.6063 30.8005C96.9497 30.2381 97.3211 29.773 97.7206 29.4051C98.1656 29.4875 98.6246 29.6184 99.0976 29.798C99.5706 29.9776 100.026 30.1885 100.465 30.4308C100.903 30.673 101.293 30.9292 101.634 31.1995C101.977 31.4378 102.239 31.6727 102.422 31.9044C101.516 32.8921 100.701 34.0275 99.9757 35.3108C99.2823 36.5954 98.5578 38.247 97.8022 40.2656C99.5919 38.802 101.171 37.3937 102.54 36.0408C103.941 34.6892 105.252 33.1738 106.474 31.4947C106.672 31.3427 107.011 31.2766 107.491 31.2963C107.939 31.3147 108.367 31.4124 108.776 31.5894C109.187 31.7344 109.466 31.938 109.616 32.2004C108.977 33.7114 108.627 35.2183 108.565 36.721C108.507 38.1278 108.672 39.1915 109.058 39.912C109.018 40.1025 108.779 40.461 108.341 40.9874C107.935 41.5152 107.483 42.009 106.983 42.4689C106.139 41.9857 105.396 41.3467 104.756 40.5517C104.118 39.7248 103.658 38.8411 103.376 37.9007C101.83 38.894 100.508 39.8805 99.4111 40.8603C98.3153 41.808 97.358 42.8896 96.5393 44.105C95.754 45.2897 95.0567 46.6702 94.4473 48.2465C93.87 49.8241 93.2962 51.7061 92.7258 53.8925C92.4394 53.8487 92.0923 53.7223 91.6845 53.5134C91.3074 53.3377 90.9163 53.1135 90.5112 52.8406C90.138 52.569 89.7975 52.2828 89.4896 51.9819C89.1817 51.6809 88.9851 51.4006 88.8997 51.1409Z" fill="black"/>
<path d="M109.432 50.4466C109.47 50.1611 109.532 49.8143 109.619 49.4061C109.741 48.9705 109.912 48.4121 110.132 47.7311C110.355 47.0183 110.63 46.167 110.955 45.1772C111.312 44.1916 111.744 43.0061 112.25 41.6208C112.356 41.312 112.566 40.8234 112.881 40.155C113.195 39.4866 113.578 38.7949 114.028 38.0799C114.514 37.3374 115.059 36.6351 115.663 35.9729C116.3 35.3149 117.006 34.8598 117.781 34.6078C118.304 34.8063 118.973 35.2341 119.79 35.8913C120.611 36.5168 121.277 37.3316 121.79 38.3358C120.951 39.0636 120.222 39.8063 119.605 40.5636C119.02 41.3252 118.462 42.1228 117.932 42.9562C117.433 43.7939 116.946 44.6654 116.471 45.5707C116.028 46.4802 115.53 47.431 114.979 48.4231C114.512 49.2649 114.073 50.1427 113.661 51.0565C113.253 51.9385 112.987 52.7264 112.863 53.42C112.787 53.991 112.718 54.3854 112.657 54.6033C112.623 54.857 112.527 54.9734 112.369 54.9523C112.242 54.9355 111.999 54.8225 111.639 54.6133C111.279 54.4042 110.914 54.1136 110.544 53.7417C110.21 53.3422 109.918 52.8676 109.668 52.3179C109.418 51.7683 109.339 51.1445 109.432 50.4466ZM121.262 31.0025C121.288 30.8122 121.373 30.533 121.519 30.165C121.381 29.9853 121.27 29.7285 121.185 29.3944C121.132 29.0646 121.123 28.7727 121.156 28.519C121.194 28.2335 121.276 27.857 121.403 27.3896C121.566 26.8947 121.748 26.3702 121.951 25.8161C122.154 25.2619 122.39 24.6961 122.66 24.1187C122.935 23.5095 123.201 22.9638 123.459 22.4815C123.84 22.5321 124.285 22.7042 124.795 22.9978C125.34 23.264 125.875 23.6094 126.4 24.0342C126.929 24.4272 127.404 24.8615 127.825 25.337C128.25 25.7809 128.567 26.1941 128.774 26.5767C128.379 26.8793 127.854 27.31 127.198 27.8686C126.547 28.3955 125.906 28.9721 125.274 29.5983C124.646 30.1929 124.07 30.762 123.546 31.3058C123.022 31.8495 122.68 32.2399 122.519 32.4768C122.147 32.3628 121.835 32.16 121.583 31.8683C121.336 31.5449 121.229 31.2563 121.262 31.0025Z" fill="black"/>
<path d="M122.142 52.7451C122.43 51.3668 123.16 49.5088 124.334 47.1712C125.515 44.8023 127.046 42.0817 128.929 39.0093C131.975 34.1202 134.71 30.0977 137.133 26.9419C139.594 23.7613 141.845 21.3541 143.886 19.7202C144.248 19.8613 144.67 20.1126 145.15 20.4743C145.662 20.8424 146.151 21.2387 146.619 21.663C147.092 22.056 147.5 22.4516 147.842 22.8498C148.215 23.2545 148.445 23.5639 148.531 23.778C145.487 26.1504 142.694 28.8043 140.154 31.7395C137.613 34.6746 135.128 38.128 132.698 42.0996C130.611 45.5218 128.913 48.649 127.603 51.4813C126.3 54.2822 125.443 56.6695 125.031 58.643C124.92 59.1756 124.852 59.5045 124.825 59.6298C124.799 59.7551 124.789 59.8837 124.794 60.0155C124.369 59.8614 124.016 59.6734 123.735 59.4514C123.454 59.2295 123.29 58.9991 123.242 58.7602C123.212 58.5905 123.088 58.3196 122.872 57.9476C122.649 57.6068 122.444 57.3353 122.257 57.1329C122.014 56.8862 121.881 56.3516 121.856 55.5293C121.838 54.6756 121.933 53.7476 122.142 52.7451Z" fill="black"/>
<path d="M138.557 50.7529C138.8 49.9239 139.367 48.7896 140.257 47.35C141.186 45.8886 142.283 44.3099 143.549 42.6136C144.823 40.8867 146.203 39.1408 147.688 37.3758C149.183 35.5802 150.637 33.9227 152.05 32.4034C153.494 30.8931 154.82 29.6149 156.028 28.5688C157.244 27.4921 158.223 26.8289 158.963 26.5794C159.427 26.8158 159.882 27.1993 160.326 27.7301C160.81 28.2391 161.231 28.7961 161.587 29.4009C161.952 29.975 162.246 30.5618 162.47 31.1612C162.694 31.7607 162.783 32.2537 162.736 32.6401C160.792 33.4698 158.768 34.6264 156.665 36.1099C154.57 37.5627 152.521 39.2619 150.515 41.2076C148.54 43.1624 146.669 45.3311 144.902 47.7138C143.144 50.0657 141.614 52.5512 140.311 55.1702C139.97 54.9699 139.633 54.7543 139.301 54.5233C139.008 54.2705 138.775 53.9853 138.601 53.6676C138.428 53.3498 138.328 52.9534 138.3 52.4785C138.273 52.0036 138.359 51.4284 138.557 50.7529ZM133.96 62.66C133.591 62.5517 133.265 62.3559 132.981 62.0725C132.689 61.8198 132.44 61.5301 132.236 61.2033C132.054 60.9163 131.926 60.612 131.854 60.2906C131.772 59.9999 131.754 59.7778 131.799 59.6243C131.908 59.2558 132.093 58.7935 132.357 58.2371C132.62 57.6808 132.921 57.1687 133.258 56.7009C133.605 56.2023 133.97 55.8094 134.355 55.5221C134.748 55.2041 135.114 55.0947 135.452 55.1939C136.311 55.4464 137.081 56.0059 137.76 56.8724C138.479 57.7173 138.946 58.5712 139.159 59.4344C138.673 59.7253 138.22 60.0758 137.8 60.4859C137.37 60.9267 136.954 61.3215 136.551 61.6702C136.14 62.0496 135.72 62.3432 135.292 62.5511C134.864 62.7589 134.42 62.7952 133.96 62.66Z" fill="#FB3B00"/>
<path d="M153.502 55.9287C153.816 55.1239 154.479 54.0428 155.489 52.6855C156.542 51.3099 157.771 49.8319 159.179 48.2515C160.597 46.6411 162.123 45.021 163.755 43.3911C165.4 41.7314 166.991 40.2058 168.531 38.8144C170.1 37.4346 171.531 36.2758 172.825 35.3381C174.13 34.3705 175.163 33.7944 175.922 33.6098C176.364 33.8855 176.783 34.3069 177.18 34.874C177.618 35.423 177.989 36.0142 178.291 36.6475C178.605 37.2511 178.848 37.8611 179.019 38.4777C179.191 39.0943 179.237 39.5931 179.157 39.9741C177.148 40.6325 175.031 41.6098 172.808 42.9059C170.596 44.1722 168.407 45.6879 166.24 47.453C164.104 49.2297 162.053 51.2285 160.086 53.4495C158.132 55.6407 156.392 57.9846 154.868 60.4812C154.545 60.2521 154.228 60.0081 153.917 59.7492C153.647 59.4722 153.44 59.1679 153.294 58.8363C153.149 58.5047 153.083 58.1012 153.097 57.6257C153.111 57.1502 153.246 56.5845 153.502 55.9287ZM147.892 67.3937C147.535 67.2541 147.227 67.0308 146.969 66.724C146.699 66.4469 146.477 66.1368 146.301 65.7936C146.144 65.4918 146.044 65.1777 145.999 64.8512C145.943 64.5546 145.945 64.3317 146.003 64.1827C146.142 63.825 146.367 63.3804 146.678 62.8489C146.989 62.3175 147.332 61.8333 147.709 61.3963C148.097 60.9296 148.495 60.5698 148.903 60.3168C149.323 60.034 149.697 59.9566 150.024 60.0846C150.859 60.4105 151.577 61.0344 152.179 61.9564C152.823 62.8603 153.213 63.7514 153.351 64.6297C152.842 64.8776 152.361 65.1876 151.906 65.5598C151.44 65.9618 150.991 66.3192 150.56 66.6317C150.117 66.9741 149.674 67.2304 149.229 67.4005C148.785 67.5705 148.339 67.5683 147.892 67.3937Z" fill="#FB3B00"/>
</svg>