<svg width="25" height="25" viewBox="0 0 25 25" fill="none" xmlns="http://www.w3.org/2000/svg">
<rect width="25" height="25" rx="12.5" fill="#585858"/>
<path d="M16.5761 14.63C16.5761 15.3953 16.2961 16.0533 15.7361 16.604C15.1761 17.1453 14.3688 17.4813 13.3141 17.612V19.18H11.9141V17.654C11.2235 17.6167 10.5655 17.4953 9.94013 17.29C9.3148 17.0847 8.8108 16.8327 8.42813 16.534L9.19813 14.826C9.5528 15.0873 9.96813 15.3067 10.4441 15.484C10.9201 15.6613 11.4101 15.7733 11.9141 15.82V13.482C11.2515 13.3233 10.6915 13.146 10.2341 12.95C9.7768 12.754 9.39413 12.4693 9.08613 12.096C8.77813 11.7133 8.62413 11.2093 8.62413 10.584C8.62413 9.80933 8.90413 9.14667 9.46413 8.596C10.0335 8.036 10.8501 7.69533 11.9141 7.574V6.02H13.3141V7.546C14.4621 7.63933 15.4095 7.924 16.1561 8.4L15.4561 10.122C14.7561 9.72067 14.0421 9.478 13.3141 9.394V11.774C13.9675 11.9233 14.5181 12.096 14.9661 12.292C15.4235 12.4787 15.8061 12.7633 16.1141 13.146C16.4221 13.5193 16.5761 14.014 16.5761 14.63ZM10.8781 10.472C10.8781 10.7053 10.9668 10.8967 11.1441 11.046C11.3215 11.1953 11.5781 11.3213 11.9141 11.424V9.436C11.5595 9.52 11.2981 9.65533 11.1301 9.842C10.9621 10.0193 10.8781 10.2293 10.8781 10.472ZM13.3141 15.764C13.6501 15.6893 13.9021 15.568 14.0701 15.4C14.2381 15.232 14.3221 15.0313 14.3221 14.798C14.3221 14.5647 14.2335 14.3733 14.0561 14.224C13.8881 14.0747 13.6408 13.944 13.3141 13.832V15.764Z" fill="white"/>
</svg>
